<mxfile host="Electron" agent="Mozilla/5.0 (Windows NT 10.0; Win64; x64) AppleWebKit/537.36 (KHTML, like Gecko) draw.io/25.0.2 Chrome/128.0.6613.186 Electron/32.2.5 Safari/537.36" version="25.0.2">
  <diagram name="PÃ¡gina-1" id="Blc7Gyee5sPXIywkTEQH">
    <mxGraphModel dx="1930" dy="1812" grid="1" gridSize="10" guides="1" tooltips="1" connect="1" arrows="1" fold="1" page="1" pageScale="1" pageWidth="827" pageHeight="1169" math="0" shadow="0">
      <root>
        <mxCell id="0" />
        <mxCell id="1" parent="0" />
        <mxCell id="OhinMRKyZW5N7yWiTl8t-2" value="user" style="whiteSpace=wrap;html=1;align=center;" parent="1" vertex="1">
          <mxGeometry x="350" y="220" width="100" height="40" as="geometry" />
        </mxCell>
        <mxCell id="OhinMRKyZW5N7yWiTl8t-3" value="name" style="ellipse;whiteSpace=wrap;html=1;align=center;" parent="1" vertex="1">
          <mxGeometry x="543.75" y="155" width="40" height="20" as="geometry" />
        </mxCell>
        <mxCell id="OhinMRKyZW5N7yWiTl8t-4" value="first_surname" style="ellipse;whiteSpace=wrap;html=1;align=center;" parent="1" vertex="1">
          <mxGeometry x="495.38" y="112.5" width="90" height="30" as="geometry" />
        </mxCell>
        <mxCell id="OhinMRKyZW5N7yWiTl8t-5" value="second_surname" style="ellipse;whiteSpace=wrap;html=1;align=center;" parent="1" vertex="1">
          <mxGeometry x="230" y="80" width="110" height="30" as="geometry" />
        </mxCell>
        <mxCell id="OhinMRKyZW5N7yWiTl8t-6" value="birth_date" style="ellipse;whiteSpace=wrap;html=1;align=center;" parent="1" vertex="1">
          <mxGeometry x="455.38" y="75" width="90" height="30" as="geometry" />
        </mxCell>
        <mxCell id="OhinMRKyZW5N7yWiTl8t-7" value="gender" style="ellipse;whiteSpace=wrap;html=1;align=center;" parent="1" vertex="1">
          <mxGeometry x="245" y="355" width="60" height="25" as="geometry" />
        </mxCell>
        <mxCell id="OhinMRKyZW5N7yWiTl8t-8" value="password" style="ellipse;whiteSpace=wrap;html=1;align=center;" parent="1" vertex="1">
          <mxGeometry x="170" y="360" width="70" height="30" as="geometry" />
        </mxCell>
        <mxCell id="OhinMRKyZW5N7yWiTl8t-9" value="email" style="ellipse;whiteSpace=wrap;html=1;align=center;" parent="1" vertex="1">
          <mxGeometry x="510" y="270" width="90" height="30" as="geometry" />
        </mxCell>
        <mxCell id="OhinMRKyZW5N7yWiTl8t-10" value="&lt;u&gt;dni&lt;/u&gt;" style="ellipse;whiteSpace=wrap;align=center;verticalAlign=middle;html=1;" parent="1" vertex="1">
          <mxGeometry x="245" y="117.5" width="40" height="20" as="geometry" />
        </mxCell>
        <mxCell id="OhinMRKyZW5N7yWiTl8t-12" value="" style="endArrow=none;html=1;rounded=0;" parent="1" source="OhinMRKyZW5N7yWiTl8t-2" target="OhinMRKyZW5N7yWiTl8t-10" edge="1">
          <mxGeometry width="50" height="50" relative="1" as="geometry">
            <mxPoint x="380" y="260" as="sourcePoint" />
            <mxPoint x="430" y="210" as="targetPoint" />
          </mxGeometry>
        </mxCell>
        <mxCell id="OhinMRKyZW5N7yWiTl8t-13" value="" style="endArrow=none;html=1;rounded=0;" parent="1" source="OhinMRKyZW5N7yWiTl8t-2" target="OhinMRKyZW5N7yWiTl8t-3" edge="1">
          <mxGeometry width="50" height="50" relative="1" as="geometry">
            <mxPoint x="500" y="220" as="sourcePoint" />
            <mxPoint x="317" y="169" as="targetPoint" />
          </mxGeometry>
        </mxCell>
        <mxCell id="OhinMRKyZW5N7yWiTl8t-14" value="" style="endArrow=none;html=1;rounded=0;" parent="1" source="OhinMRKyZW5N7yWiTl8t-2" target="OhinMRKyZW5N7yWiTl8t-4" edge="1">
          <mxGeometry width="50" height="50" relative="1" as="geometry">
            <mxPoint x="510" y="200" as="sourcePoint" />
            <mxPoint x="362" y="140" as="targetPoint" />
          </mxGeometry>
        </mxCell>
        <mxCell id="OhinMRKyZW5N7yWiTl8t-15" value="" style="endArrow=none;html=1;rounded=0;" parent="1" source="OhinMRKyZW5N7yWiTl8t-2" target="OhinMRKyZW5N7yWiTl8t-5" edge="1">
          <mxGeometry width="50" height="50" relative="1" as="geometry">
            <mxPoint x="395" y="240" as="sourcePoint" />
            <mxPoint x="372" y="150" as="targetPoint" />
          </mxGeometry>
        </mxCell>
        <mxCell id="OhinMRKyZW5N7yWiTl8t-16" value="" style="endArrow=none;html=1;rounded=0;" parent="1" source="OhinMRKyZW5N7yWiTl8t-2" target="OhinMRKyZW5N7yWiTl8t-6" edge="1">
          <mxGeometry width="50" height="50" relative="1" as="geometry">
            <mxPoint x="405" y="250" as="sourcePoint" />
            <mxPoint x="382" y="160" as="targetPoint" />
          </mxGeometry>
        </mxCell>
        <mxCell id="OhinMRKyZW5N7yWiTl8t-17" value="" style="endArrow=none;html=1;rounded=0;" parent="1" source="OhinMRKyZW5N7yWiTl8t-7" target="OhinMRKyZW5N7yWiTl8t-2" edge="1">
          <mxGeometry width="50" height="50" relative="1" as="geometry">
            <mxPoint x="415" y="260" as="sourcePoint" />
            <mxPoint x="392" y="170" as="targetPoint" />
          </mxGeometry>
        </mxCell>
        <mxCell id="OhinMRKyZW5N7yWiTl8t-18" value="" style="endArrow=none;html=1;rounded=0;" parent="1" source="OhinMRKyZW5N7yWiTl8t-8" target="OhinMRKyZW5N7yWiTl8t-2" edge="1">
          <mxGeometry width="50" height="50" relative="1" as="geometry">
            <mxPoint x="429" y="300" as="sourcePoint" />
            <mxPoint x="418" y="270" as="targetPoint" />
          </mxGeometry>
        </mxCell>
        <mxCell id="OhinMRKyZW5N7yWiTl8t-19" value="" style="endArrow=none;html=1;rounded=0;" parent="1" source="OhinMRKyZW5N7yWiTl8t-9" target="OhinMRKyZW5N7yWiTl8t-2" edge="1">
          <mxGeometry width="50" height="50" relative="1" as="geometry">
            <mxPoint x="335" y="302" as="sourcePoint" />
            <mxPoint x="381" y="270" as="targetPoint" />
          </mxGeometry>
        </mxCell>
        <mxCell id="OhinMRKyZW5N7yWiTl8t-21" value="has" style="shape=rhombus;perimeter=rhombusPerimeter;whiteSpace=wrap;html=1;align=center;" parent="1" vertex="1">
          <mxGeometry x="662.5" y="130" width="120" height="60" as="geometry" />
        </mxCell>
        <mxCell id="OhinMRKyZW5N7yWiTl8t-22" value="role" style="whiteSpace=wrap;html=1;align=center;" parent="1" vertex="1">
          <mxGeometry x="830.13" y="97.5" width="100" height="40" as="geometry" />
        </mxCell>
        <mxCell id="OhinMRKyZW5N7yWiTl8t-23" value="id" style="ellipse;whiteSpace=wrap;html=1;align=center;fontStyle=4;" parent="1" vertex="1">
          <mxGeometry x="939.5" y="60" width="50" height="20" as="geometry" />
        </mxCell>
        <mxCell id="OhinMRKyZW5N7yWiTl8t-25" value="name" style="ellipse;whiteSpace=wrap;html=1;align=center;" parent="1" vertex="1">
          <mxGeometry x="1010" y="65" width="50" height="20" as="geometry" />
        </mxCell>
        <mxCell id="OhinMRKyZW5N7yWiTl8t-26" value="" style="endArrow=none;html=1;rounded=0;" parent="1" source="OhinMRKyZW5N7yWiTl8t-22" target="OhinMRKyZW5N7yWiTl8t-23" edge="1">
          <mxGeometry width="50" height="50" relative="1" as="geometry">
            <mxPoint x="430" y="260" as="sourcePoint" />
            <mxPoint x="480" y="210" as="targetPoint" />
          </mxGeometry>
        </mxCell>
        <mxCell id="OhinMRKyZW5N7yWiTl8t-27" value="" style="endArrow=none;html=1;rounded=0;" parent="1" source="OhinMRKyZW5N7yWiTl8t-22" target="OhinMRKyZW5N7yWiTl8t-25" edge="1">
          <mxGeometry width="50" height="50" relative="1" as="geometry">
            <mxPoint x="668" y="230" as="sourcePoint" />
            <mxPoint x="638" y="180" as="targetPoint" />
          </mxGeometry>
        </mxCell>
        <mxCell id="OhinMRKyZW5N7yWiTl8t-34" value="" style="endArrow=none;html=1;rounded=0;" parent="1" source="OhinMRKyZW5N7yWiTl8t-2" target="OhinMRKyZW5N7yWiTl8t-21" edge="1">
          <mxGeometry relative="1" as="geometry">
            <mxPoint x="550" y="240" as="sourcePoint" />
            <mxPoint x="710" y="240" as="targetPoint" />
          </mxGeometry>
        </mxCell>
        <mxCell id="OhinMRKyZW5N7yWiTl8t-35" value="0" style="resizable=0;html=1;whiteSpace=wrap;align=left;verticalAlign=bottom;" parent="OhinMRKyZW5N7yWiTl8t-34" connectable="0" vertex="1">
          <mxGeometry x="-1" relative="1" as="geometry" />
        </mxCell>
        <mxCell id="OhinMRKyZW5N7yWiTl8t-36" value="M" style="resizable=0;html=1;whiteSpace=wrap;align=right;verticalAlign=bottom;" parent="OhinMRKyZW5N7yWiTl8t-34" connectable="0" vertex="1">
          <mxGeometry x="1" relative="1" as="geometry">
            <mxPoint x="-22" as="offset" />
          </mxGeometry>
        </mxCell>
        <mxCell id="OhinMRKyZW5N7yWiTl8t-37" value="" style="endArrow=none;html=1;rounded=0;" parent="1" source="OhinMRKyZW5N7yWiTl8t-21" target="OhinMRKyZW5N7yWiTl8t-22" edge="1">
          <mxGeometry relative="1" as="geometry">
            <mxPoint x="460" y="250" as="sourcePoint" />
            <mxPoint x="690" y="250" as="targetPoint" />
          </mxGeometry>
        </mxCell>
        <mxCell id="OhinMRKyZW5N7yWiTl8t-38" value="1" style="resizable=0;html=1;whiteSpace=wrap;align=left;verticalAlign=bottom;" parent="OhinMRKyZW5N7yWiTl8t-37" connectable="0" vertex="1">
          <mxGeometry x="-1" relative="1" as="geometry" />
        </mxCell>
        <mxCell id="OhinMRKyZW5N7yWiTl8t-39" value="N" style="resizable=0;html=1;whiteSpace=wrap;align=right;verticalAlign=bottom;" parent="OhinMRKyZW5N7yWiTl8t-37" connectable="0" vertex="1">
          <mxGeometry x="1" relative="1" as="geometry" />
        </mxCell>
        <mxCell id="OhinMRKyZW5N7yWiTl8t-40" value="kind_member" style="ellipse;whiteSpace=wrap;html=1;align=center;" parent="1" vertex="1">
          <mxGeometry x="513.75" y="310" width="96.25" height="30" as="geometry" />
        </mxCell>
        <mxCell id="OhinMRKyZW5N7yWiTl8t-41" value="" style="endArrow=none;html=1;rounded=0;entryX=0.851;entryY=0.954;entryDx=0;entryDy=0;entryPerimeter=0;" parent="1" source="OhinMRKyZW5N7yWiTl8t-40" target="OhinMRKyZW5N7yWiTl8t-2" edge="1">
          <mxGeometry width="50" height="50" relative="1" as="geometry">
            <mxPoint x="531" y="285" as="sourcePoint" />
            <mxPoint x="460" y="265" as="targetPoint" />
          </mxGeometry>
        </mxCell>
        <mxCell id="OhinMRKyZW5N7yWiTl8t-42" value="enabled" style="ellipse;whiteSpace=wrap;html=1;align=center;" parent="1" vertex="1">
          <mxGeometry x="310" y="330" width="70" height="30" as="geometry" />
        </mxCell>
        <mxCell id="OhinMRKyZW5N7yWiTl8t-43" value="" style="endArrow=none;html=1;rounded=0;" parent="1" source="OhinMRKyZW5N7yWiTl8t-42" target="OhinMRKyZW5N7yWiTl8t-2" edge="1">
          <mxGeometry width="50" height="50" relative="1" as="geometry">
            <mxPoint x="505" y="346" as="sourcePoint" />
            <mxPoint x="445" y="268" as="targetPoint" />
          </mxGeometry>
        </mxCell>
        <mxCell id="OhinMRKyZW5N7yWiTl8t-45" value="ProfileImage" style="whiteSpace=wrap;html=1;align=center;" parent="1" vertex="1">
          <mxGeometry x="290" y="-50" width="100" height="40" as="geometry" />
        </mxCell>
        <mxCell id="OhinMRKyZW5N7yWiTl8t-46" value="url" style="ellipse;whiteSpace=wrap;html=1;align=center;" parent="1" vertex="1">
          <mxGeometry x="240" y="-260" width="100" height="40" as="geometry" />
        </mxCell>
        <mxCell id="OhinMRKyZW5N7yWiTl8t-47" value="extension" style="ellipse;whiteSpace=wrap;html=1;align=center;" parent="1" vertex="1">
          <mxGeometry x="190" y="-210" width="100" height="40" as="geometry" />
        </mxCell>
        <mxCell id="OhinMRKyZW5N7yWiTl8t-48" value="stored" style="ellipse;whiteSpace=wrap;html=1;align=center;" parent="1" vertex="1">
          <mxGeometry x="155" y="-160" width="100" height="40" as="geometry" />
        </mxCell>
        <mxCell id="OhinMRKyZW5N7yWiTl8t-49" value="" style="endArrow=none;html=1;rounded=0;" parent="1" source="OhinMRKyZW5N7yWiTl8t-45" target="OhinMRKyZW5N7yWiTl8t-46" edge="1">
          <mxGeometry width="50" height="50" relative="1" as="geometry">
            <mxPoint x="610" y="120" as="sourcePoint" />
            <mxPoint x="660" y="70" as="targetPoint" />
          </mxGeometry>
        </mxCell>
        <mxCell id="OhinMRKyZW5N7yWiTl8t-50" value="" style="endArrow=none;html=1;rounded=0;" parent="1" source="OhinMRKyZW5N7yWiTl8t-45" target="OhinMRKyZW5N7yWiTl8t-47" edge="1">
          <mxGeometry width="50" height="50" relative="1" as="geometry">
            <mxPoint x="610" y="120" as="sourcePoint" />
            <mxPoint x="510" y="-50" as="targetPoint" />
          </mxGeometry>
        </mxCell>
        <mxCell id="OhinMRKyZW5N7yWiTl8t-51" value="" style="endArrow=none;html=1;rounded=0;" parent="1" source="OhinMRKyZW5N7yWiTl8t-45" target="OhinMRKyZW5N7yWiTl8t-48" edge="1">
          <mxGeometry width="50" height="50" relative="1" as="geometry">
            <mxPoint x="610" y="120" as="sourcePoint" />
            <mxPoint x="660" y="70" as="targetPoint" />
          </mxGeometry>
        </mxCell>
        <mxCell id="OhinMRKyZW5N7yWiTl8t-52" value="has" style="shape=rhombus;double=1;perimeter=rhombusPerimeter;whiteSpace=wrap;html=1;align=center;" parent="1" vertex="1">
          <mxGeometry x="280" y="20" width="120" height="60" as="geometry" />
        </mxCell>
        <mxCell id="OhinMRKyZW5N7yWiTl8t-53" value="" style="endArrow=none;html=1;rounded=0;" parent="1" source="OhinMRKyZW5N7yWiTl8t-2" target="OhinMRKyZW5N7yWiTl8t-52" edge="1">
          <mxGeometry width="50" height="50" relative="1" as="geometry">
            <mxPoint x="610" y="120" as="sourcePoint" />
            <mxPoint x="660" y="70" as="targetPoint" />
          </mxGeometry>
        </mxCell>
        <mxCell id="OhinMRKyZW5N7yWiTl8t-57" value="1" style="edgeLabel;html=1;align=center;verticalAlign=middle;resizable=0;points=[];" parent="OhinMRKyZW5N7yWiTl8t-53" vertex="1" connectable="0">
          <mxGeometry x="0.1545" y="-1" relative="1" as="geometry">
            <mxPoint x="-8" y="-46" as="offset" />
          </mxGeometry>
        </mxCell>
        <mxCell id="OhinMRKyZW5N7yWiTl8t-62" value="1" style="edgeLabel;html=1;align=center;verticalAlign=middle;resizable=0;points=[];" parent="OhinMRKyZW5N7yWiTl8t-53" vertex="1" connectable="0">
          <mxGeometry x="-0.4662" y="1" relative="1" as="geometry">
            <mxPoint x="15" y="7" as="offset" />
          </mxGeometry>
        </mxCell>
        <mxCell id="OhinMRKyZW5N7yWiTl8t-54" value="" style="endArrow=none;html=1;rounded=0;" parent="1" source="OhinMRKyZW5N7yWiTl8t-52" target="OhinMRKyZW5N7yWiTl8t-45" edge="1">
          <mxGeometry width="50" height="50" relative="1" as="geometry">
            <mxPoint x="610" y="120" as="sourcePoint" />
            <mxPoint x="660" y="70" as="targetPoint" />
            <Array as="points" />
          </mxGeometry>
        </mxCell>
        <mxCell id="OhinMRKyZW5N7yWiTl8t-59" value="1" style="edgeLabel;html=1;align=center;verticalAlign=middle;resizable=0;points=[];" parent="OhinMRKyZW5N7yWiTl8t-54" vertex="1" connectable="0">
          <mxGeometry x="-0.1807" y="1" relative="1" as="geometry">
            <mxPoint x="15" y="-19" as="offset" />
          </mxGeometry>
        </mxCell>
        <mxCell id="OhinMRKyZW5N7yWiTl8t-61" value="0" style="edgeLabel;html=1;align=center;verticalAlign=middle;resizable=0;points=[];" parent="OhinMRKyZW5N7yWiTl8t-54" vertex="1" connectable="0">
          <mxGeometry x="0.4262" relative="1" as="geometry">
            <mxPoint x="14" y="26" as="offset" />
          </mxGeometry>
        </mxCell>
        <mxCell id="OhinMRKyZW5N7yWiTl8t-55" value="&lt;span style=&quot;border-bottom: 1px dotted&quot;&gt;user_dni&lt;/span&gt;" style="ellipse;whiteSpace=wrap;html=1;align=center;" parent="1" vertex="1">
          <mxGeometry x="120" y="-115" width="100" height="40" as="geometry" />
        </mxCell>
        <mxCell id="OhinMRKyZW5N7yWiTl8t-56" value="" style="endArrow=none;html=1;rounded=0;" parent="1" source="OhinMRKyZW5N7yWiTl8t-45" target="OhinMRKyZW5N7yWiTl8t-55" edge="1">
          <mxGeometry width="50" height="50" relative="1" as="geometry">
            <mxPoint x="610" y="120" as="sourcePoint" />
            <mxPoint x="660" y="70" as="targetPoint" />
          </mxGeometry>
        </mxCell>
        <mxCell id="OhinMRKyZW5N7yWiTl8t-63" value="user_federative_data" style="whiteSpace=wrap;html=1;align=center;" parent="1" vertex="1">
          <mxGeometry x="810" y="380" width="150" height="40" as="geometry" />
        </mxCell>
        <mxCell id="OhinMRKyZW5N7yWiTl8t-64" value="" style="endArrow=none;html=1;rounded=0;" parent="1" source="OhinMRKyZW5N7yWiTl8t-2" target="OhinMRKyZW5N7yWiTl8t-67" edge="1">
          <mxGeometry relative="1" as="geometry">
            <mxPoint x="550" y="370" as="sourcePoint" />
            <mxPoint x="710" y="370" as="targetPoint" />
          </mxGeometry>
        </mxCell>
        <mxCell id="OhinMRKyZW5N7yWiTl8t-68" value="1" style="edgeLabel;html=1;align=center;verticalAlign=middle;resizable=0;points=[];" parent="OhinMRKyZW5N7yWiTl8t-64" vertex="1" connectable="0">
          <mxGeometry x="-0.758" y="1" relative="1" as="geometry">
            <mxPoint x="13" y="-3" as="offset" />
          </mxGeometry>
        </mxCell>
        <mxCell id="OhinMRKyZW5N7yWiTl8t-70" value="1" style="edgeLabel;html=1;align=center;verticalAlign=middle;resizable=0;points=[];" parent="OhinMRKyZW5N7yWiTl8t-64" vertex="1" connectable="0">
          <mxGeometry x="0.1699" y="2" relative="1" as="geometry">
            <mxPoint x="12" y="36" as="offset" />
          </mxGeometry>
        </mxCell>
        <mxCell id="OhinMRKyZW5N7yWiTl8t-67" value="has" style="shape=rhombus;double=1;perimeter=rhombusPerimeter;whiteSpace=wrap;html=1;align=center;" parent="1" vertex="1">
          <mxGeometry x="487.4999999999998" y="370" width="120" height="60" as="geometry" />
        </mxCell>
        <mxCell id="OhinMRKyZW5N7yWiTl8t-71" value="1" style="endArrow=none;html=1;rounded=0;" parent="1" source="OhinMRKyZW5N7yWiTl8t-67" target="OhinMRKyZW5N7yWiTl8t-63" edge="1">
          <mxGeometry x="0.5" y="10" relative="1" as="geometry">
            <mxPoint x="550" y="370" as="sourcePoint" />
            <mxPoint x="710" y="370" as="targetPoint" />
            <mxPoint as="offset" />
          </mxGeometry>
        </mxCell>
        <mxCell id="OhinMRKyZW5N7yWiTl8t-73" value="1" style="edgeLabel;html=1;align=center;verticalAlign=middle;resizable=0;points=[];" parent="OhinMRKyZW5N7yWiTl8t-71" vertex="1" connectable="0">
          <mxGeometry x="-0.6931" relative="1" as="geometry">
            <mxPoint x="4" y="-10" as="offset" />
          </mxGeometry>
        </mxCell>
        <mxCell id="OhinMRKyZW5N7yWiTl8t-74" value="user_dni" style="ellipse;whiteSpace=wrap;html=1;align=center;dashed=1;" parent="1" vertex="1">
          <mxGeometry x="725" y="310" width="75" height="30" as="geometry" />
        </mxCell>
        <mxCell id="OhinMRKyZW5N7yWiTl8t-76" value="" style="endArrow=none;html=1;rounded=0;" parent="1" source="OhinMRKyZW5N7yWiTl8t-74" target="OhinMRKyZW5N7yWiTl8t-63" edge="1">
          <mxGeometry relative="1" as="geometry">
            <mxPoint x="930" y="315" as="sourcePoint" />
            <mxPoint x="1090" y="315" as="targetPoint" />
          </mxGeometry>
        </mxCell>
        <mxCell id="OhinMRKyZW5N7yWiTl8t-77" value="dni_front_image_url" style="ellipse;whiteSpace=wrap;html=1;align=center;" parent="1" vertex="1">
          <mxGeometry x="610" y="440" width="140" height="40" as="geometry" />
        </mxCell>
        <mxCell id="OhinMRKyZW5N7yWiTl8t-79" value="" style="endArrow=none;html=1;rounded=0;" parent="1" source="OhinMRKyZW5N7yWiTl8t-77" target="OhinMRKyZW5N7yWiTl8t-63" edge="1">
          <mxGeometry width="50" height="50" relative="1" as="geometry">
            <mxPoint x="1040" y="345" as="sourcePoint" />
            <mxPoint x="1090" y="295" as="targetPoint" />
          </mxGeometry>
        </mxCell>
        <mxCell id="OhinMRKyZW5N7yWiTl8t-80" value="dni_back_image_url" style="ellipse;whiteSpace=wrap;html=1;align=center;" parent="1" vertex="1">
          <mxGeometry x="1010.75" y="495" width="140" height="40" as="geometry" />
        </mxCell>
        <mxCell id="OhinMRKyZW5N7yWiTl8t-81" value="" style="endArrow=none;html=1;rounded=0;" parent="1" source="OhinMRKyZW5N7yWiTl8t-80" target="OhinMRKyZW5N7yWiTl8t-63" edge="1">
          <mxGeometry width="50" height="50" relative="1" as="geometry">
            <mxPoint x="1040" y="345" as="sourcePoint" />
            <mxPoint x="1090" y="295" as="targetPoint" />
          </mxGeometry>
        </mxCell>
        <mxCell id="OhinMRKyZW5N7yWiTl8t-82" value="automatic_renewal" style="ellipse;whiteSpace=wrap;html=1;align=center;" parent="1" vertex="1">
          <mxGeometry x="924.5" y="290" width="125" height="40" as="geometry" />
        </mxCell>
        <mxCell id="OhinMRKyZW5N7yWiTl8t-83" value="" style="endArrow=none;html=1;rounded=0;" parent="1" source="OhinMRKyZW5N7yWiTl8t-82" target="OhinMRKyZW5N7yWiTl8t-63" edge="1">
          <mxGeometry width="50" height="50" relative="1" as="geometry">
            <mxPoint x="1040" y="345" as="sourcePoint" />
            <mxPoint x="900" y="455" as="targetPoint" />
          </mxGeometry>
        </mxCell>
        <mxCell id="OhinMRKyZW5N7yWiTl8t-84" value="dni_last_update" style="ellipse;whiteSpace=wrap;html=1;align=center;" parent="1" vertex="1">
          <mxGeometry x="1060" y="417.5" width="100" height="40" as="geometry" />
        </mxCell>
        <mxCell id="OhinMRKyZW5N7yWiTl8t-85" value="" style="endArrow=none;html=1;rounded=0;" parent="1" source="OhinMRKyZW5N7yWiTl8t-84" target="OhinMRKyZW5N7yWiTl8t-63" edge="1">
          <mxGeometry width="50" height="50" relative="1" as="geometry">
            <mxPoint x="1040" y="345" as="sourcePoint" />
            <mxPoint x="910" y="445" as="targetPoint" />
          </mxGeometry>
        </mxCell>
        <mxCell id="OhinMRKyZW5N7yWiTl8t-86" value="state" style="ellipse;whiteSpace=wrap;html=1;align=center;" parent="1" vertex="1">
          <mxGeometry x="1060" y="340" width="65" height="25" as="geometry" />
        </mxCell>
        <mxCell id="OhinMRKyZW5N7yWiTl8t-87" value="" style="endArrow=none;html=1;rounded=0;" parent="1" source="OhinMRKyZW5N7yWiTl8t-86" target="OhinMRKyZW5N7yWiTl8t-63" edge="1">
          <mxGeometry width="50" height="50" relative="1" as="geometry">
            <mxPoint x="1040" y="345" as="sourcePoint" />
            <mxPoint x="1090" y="295" as="targetPoint" />
          </mxGeometry>
        </mxCell>
        <mxCell id="OhinMRKyZW5N7yWiTl8t-88" value="lichess_auth" style="whiteSpace=wrap;html=1;align=center;" parent="1" vertex="1">
          <mxGeometry x="-20" y="-75" width="100" height="40" as="geometry" />
        </mxCell>
        <mxCell id="OhinMRKyZW5N7yWiTl8t-89" value="has" style="shape=rhombus;double=1;perimeter=rhombusPerimeter;whiteSpace=wrap;html=1;align=center;" parent="1" vertex="1">
          <mxGeometry x="145" y="135" width="120" height="60" as="geometry" />
        </mxCell>
        <mxCell id="OhinMRKyZW5N7yWiTl8t-90" value="" style="endArrow=none;html=1;rounded=0;" parent="1" source="OhinMRKyZW5N7yWiTl8t-89" target="OhinMRKyZW5N7yWiTl8t-2" edge="1">
          <mxGeometry relative="1" as="geometry">
            <mxPoint x="280" y="240" as="sourcePoint" />
            <mxPoint x="300" y="240" as="targetPoint" />
          </mxGeometry>
        </mxCell>
        <mxCell id="OhinMRKyZW5N7yWiTl8t-92" value="1" style="edgeLabel;html=1;align=center;verticalAlign=middle;resizable=0;points=[];" parent="OhinMRKyZW5N7yWiTl8t-90" vertex="1" connectable="0">
          <mxGeometry x="0.7594" relative="1" as="geometry">
            <mxPoint x="1" y="-10" as="offset" />
          </mxGeometry>
        </mxCell>
        <mxCell id="OhinMRKyZW5N7yWiTl8t-94" value="1" style="edgeLabel;html=1;align=center;verticalAlign=middle;resizable=0;points=[];" parent="OhinMRKyZW5N7yWiTl8t-90" vertex="1" connectable="0">
          <mxGeometry x="-0.7272" relative="1" as="geometry">
            <mxPoint x="16" y="-10" as="offset" />
          </mxGeometry>
        </mxCell>
        <mxCell id="OhinMRKyZW5N7yWiTl8t-91" value="" style="endArrow=none;html=1;rounded=0;" parent="1" source="OhinMRKyZW5N7yWiTl8t-88" target="OhinMRKyZW5N7yWiTl8t-89" edge="1">
          <mxGeometry relative="1" as="geometry">
            <mxPoint x="300" y="160" as="sourcePoint" />
            <mxPoint x="205.36144578313247" y="34.81927710843365" as="targetPoint" />
          </mxGeometry>
        </mxCell>
        <mxCell id="OhinMRKyZW5N7yWiTl8t-95" value="0" style="edgeLabel;html=1;align=center;verticalAlign=middle;resizable=0;points=[];" parent="OhinMRKyZW5N7yWiTl8t-91" vertex="1" connectable="0">
          <mxGeometry x="0.7596" y="2" relative="1" as="geometry">
            <mxPoint y="-8" as="offset" />
          </mxGeometry>
        </mxCell>
        <mxCell id="OhinMRKyZW5N7yWiTl8t-96" value="1" style="edgeLabel;html=1;align=center;verticalAlign=middle;resizable=0;points=[];" parent="OhinMRKyZW5N7yWiTl8t-91" vertex="1" connectable="0">
          <mxGeometry x="-0.6197" y="2" relative="1" as="geometry">
            <mxPoint y="-8" as="offset" />
          </mxGeometry>
        </mxCell>
        <mxCell id="OhinMRKyZW5N7yWiTl8t-97" value="&lt;span style=&quot;border-bottom: 1px dotted&quot;&gt;user_dni&lt;/span&gt;" style="ellipse;whiteSpace=wrap;html=1;align=center;" parent="1" vertex="1">
          <mxGeometry x="-80" y="-145" width="70" height="30" as="geometry" />
        </mxCell>
        <mxCell id="OhinMRKyZW5N7yWiTl8t-99" value="" style="endArrow=none;html=1;rounded=0;" parent="1" source="OhinMRKyZW5N7yWiTl8t-97" target="OhinMRKyZW5N7yWiTl8t-88" edge="1">
          <mxGeometry width="50" height="50" relative="1" as="geometry">
            <mxPoint x="340" y="-35" as="sourcePoint" />
            <mxPoint x="390" y="-85" as="targetPoint" />
          </mxGeometry>
        </mxCell>
        <mxCell id="OhinMRKyZW5N7yWiTl8t-100" value="access_token" style="ellipse;whiteSpace=wrap;html=1;align=center;" parent="1" vertex="1">
          <mxGeometry x="-40" y="-185" width="90" height="35" as="geometry" />
        </mxCell>
        <mxCell id="OhinMRKyZW5N7yWiTl8t-101" value="" style="endArrow=none;html=1;rounded=0;" parent="1" source="OhinMRKyZW5N7yWiTl8t-88" target="OhinMRKyZW5N7yWiTl8t-100" edge="1">
          <mxGeometry width="50" height="50" relative="1" as="geometry">
            <mxPoint x="340" y="-35" as="sourcePoint" />
            <mxPoint x="390" y="-85" as="targetPoint" />
          </mxGeometry>
        </mxCell>
        <mxCell id="OhinMRKyZW5N7yWiTl8t-103" value="scope" style="ellipse;whiteSpace=wrap;html=1;align=center;" parent="1" vertex="1">
          <mxGeometry x="40" y="-220" width="60" height="30" as="geometry" />
        </mxCell>
        <mxCell id="OhinMRKyZW5N7yWiTl8t-104" value="" style="endArrow=none;html=1;rounded=0;" parent="1" source="OhinMRKyZW5N7yWiTl8t-88" target="OhinMRKyZW5N7yWiTl8t-103" edge="1">
          <mxGeometry width="50" height="50" relative="1" as="geometry">
            <mxPoint x="340" y="-35" as="sourcePoint" />
            <mxPoint x="390" y="-85" as="targetPoint" />
          </mxGeometry>
        </mxCell>
        <mxCell id="OhinMRKyZW5N7yWiTl8t-105" value="token_type" style="ellipse;whiteSpace=wrap;html=1;align=center;" parent="1" vertex="1">
          <mxGeometry x="70" y="-185" width="80" height="35" as="geometry" />
        </mxCell>
        <mxCell id="OhinMRKyZW5N7yWiTl8t-106" value="" style="endArrow=none;html=1;rounded=0;" parent="1" source="OhinMRKyZW5N7yWiTl8t-88" target="OhinMRKyZW5N7yWiTl8t-105" edge="1">
          <mxGeometry width="50" height="50" relative="1" as="geometry">
            <mxPoint x="340" y="-35" as="sourcePoint" />
            <mxPoint x="390" y="-85" as="targetPoint" />
          </mxGeometry>
        </mxCell>
        <mxCell id="OhinMRKyZW5N7yWiTl8t-108" value="created_at" style="ellipse;whiteSpace=wrap;html=1;align=center;" parent="1" vertex="1">
          <mxGeometry x="117.5" y="-20" width="70" height="35" as="geometry" />
        </mxCell>
        <mxCell id="OhinMRKyZW5N7yWiTl8t-109" value="" style="endArrow=none;html=1;rounded=0;" parent="1" source="OhinMRKyZW5N7yWiTl8t-108" target="OhinMRKyZW5N7yWiTl8t-88" edge="1">
          <mxGeometry width="50" height="50" relative="1" as="geometry">
            <mxPoint x="340" y="-35" as="sourcePoint" />
            <mxPoint x="390" y="-85" as="targetPoint" />
          </mxGeometry>
        </mxCell>
        <mxCell id="OhinMRKyZW5N7yWiTl8t-110" value="state" style="ellipse;whiteSpace=wrap;html=1;align=center;" parent="1" vertex="1">
          <mxGeometry x="20" y="60" width="60" height="30" as="geometry" />
        </mxCell>
        <mxCell id="OhinMRKyZW5N7yWiTl8t-111" value="" style="endArrow=none;html=1;rounded=0;" parent="1" source="OhinMRKyZW5N7yWiTl8t-110" target="OhinMRKyZW5N7yWiTl8t-88" edge="1">
          <mxGeometry width="50" height="50" relative="1" as="geometry">
            <mxPoint x="340" y="-35" as="sourcePoint" />
            <mxPoint x="390" y="-85" as="targetPoint" />
          </mxGeometry>
        </mxCell>
        <mxCell id="OhinMRKyZW5N7yWiTl8t-112" value="oauth_authorization_requests" style="whiteSpace=wrap;html=1;align=center;" parent="1" vertex="1">
          <mxGeometry x="-170" y="220" width="190" height="40" as="geometry" />
        </mxCell>
        <mxCell id="OhinMRKyZW5N7yWiTl8t-113" value="has" style="shape=rhombus;double=1;perimeter=rhombusPerimeter;whiteSpace=wrap;html=1;align=center;" parent="1" vertex="1">
          <mxGeometry x="145" y="210" width="120" height="60" as="geometry" />
        </mxCell>
        <mxCell id="OhinMRKyZW5N7yWiTl8t-124" value="" style="endArrow=none;html=1;rounded=0;" parent="1" source="OhinMRKyZW5N7yWiTl8t-113" target="OhinMRKyZW5N7yWiTl8t-112" edge="1">
          <mxGeometry width="50" height="50" relative="1" as="geometry">
            <mxPoint x="-180" y="260" as="sourcePoint" />
            <mxPoint x="-130" y="210" as="targetPoint" />
          </mxGeometry>
        </mxCell>
        <mxCell id="OhinMRKyZW5N7yWiTl8t-125" value="0" style="edgeLabel;html=1;align=center;verticalAlign=middle;resizable=0;points=[];" parent="OhinMRKyZW5N7yWiTl8t-124" vertex="1" connectable="0">
          <mxGeometry x="-0.7867" relative="1" as="geometry">
            <mxPoint y="-10" as="offset" />
          </mxGeometry>
        </mxCell>
        <mxCell id="OhinMRKyZW5N7yWiTl8t-127" value="1" style="edgeLabel;html=1;align=center;verticalAlign=middle;resizable=0;points=[];" parent="OhinMRKyZW5N7yWiTl8t-124" vertex="1" connectable="0">
          <mxGeometry x="0.8041" relative="1" as="geometry">
            <mxPoint y="-10" as="offset" />
          </mxGeometry>
        </mxCell>
        <mxCell id="OhinMRKyZW5N7yWiTl8t-128" value="&lt;span style=&quot;border-bottom: 1px dotted&quot;&gt;user_dni&lt;/span&gt;" style="ellipse;whiteSpace=wrap;html=1;align=center;" parent="1" vertex="1">
          <mxGeometry x="-260" y="110" width="80" height="35" as="geometry" />
        </mxCell>
        <mxCell id="OhinMRKyZW5N7yWiTl8t-130" value="" style="endArrow=none;html=1;rounded=0;" parent="1" source="OhinMRKyZW5N7yWiTl8t-113" target="OhinMRKyZW5N7yWiTl8t-2" edge="1">
          <mxGeometry width="50" height="50" relative="1" as="geometry">
            <mxPoint x="-270" y="120" as="sourcePoint" />
            <mxPoint x="-220" y="70" as="targetPoint" />
          </mxGeometry>
        </mxCell>
        <mxCell id="OhinMRKyZW5N7yWiTl8t-143" value="1" style="edgeLabel;html=1;align=center;verticalAlign=middle;resizable=0;points=[];" parent="OhinMRKyZW5N7yWiTl8t-130" vertex="1" connectable="0">
          <mxGeometry x="0.729" y="1" relative="1" as="geometry">
            <mxPoint x="-9" y="-9" as="offset" />
          </mxGeometry>
        </mxCell>
        <mxCell id="OhinMRKyZW5N7yWiTl8t-145" value="1" style="edgeLabel;html=1;align=center;verticalAlign=middle;resizable=0;points=[];" parent="OhinMRKyZW5N7yWiTl8t-130" vertex="1" connectable="0">
          <mxGeometry x="-0.8126" y="2" relative="1" as="geometry">
            <mxPoint y="-8" as="offset" />
          </mxGeometry>
        </mxCell>
        <mxCell id="OhinMRKyZW5N7yWiTl8t-131" value="" style="endArrow=none;html=1;rounded=0;" parent="1" source="OhinMRKyZW5N7yWiTl8t-128" target="OhinMRKyZW5N7yWiTl8t-112" edge="1">
          <mxGeometry width="50" height="50" relative="1" as="geometry">
            <mxPoint x="80" y="120" as="sourcePoint" />
            <mxPoint x="130" y="70" as="targetPoint" />
          </mxGeometry>
        </mxCell>
        <mxCell id="OhinMRKyZW5N7yWiTl8t-132" value="code_verifier" style="ellipse;whiteSpace=wrap;html=1;align=center;" parent="1" vertex="1">
          <mxGeometry x="-210" y="75" width="90" height="35" as="geometry" />
        </mxCell>
        <mxCell id="OhinMRKyZW5N7yWiTl8t-133" value="state" style="ellipse;whiteSpace=wrap;html=1;align=center;" parent="1" vertex="1">
          <mxGeometry x="-140" y="45" width="60" height="25" as="geometry" />
        </mxCell>
        <mxCell id="OhinMRKyZW5N7yWiTl8t-134" value="created_at" style="ellipse;whiteSpace=wrap;html=1;align=center;" parent="1" vertex="1">
          <mxGeometry x="-85" y="80" width="80" height="30" as="geometry" />
        </mxCell>
        <mxCell id="OhinMRKyZW5N7yWiTl8t-135" value="" style="endArrow=none;html=1;rounded=0;exitX=0.422;exitY=-0.012;exitDx=0;exitDy=0;exitPerimeter=0;" parent="1" source="OhinMRKyZW5N7yWiTl8t-112" target="OhinMRKyZW5N7yWiTl8t-132" edge="1">
          <mxGeometry width="50" height="50" relative="1" as="geometry">
            <mxPoint x="80" y="120" as="sourcePoint" />
            <mxPoint x="130" y="70" as="targetPoint" />
          </mxGeometry>
        </mxCell>
        <mxCell id="OhinMRKyZW5N7yWiTl8t-136" value="" style="endArrow=none;html=1;rounded=0;entryX=0.641;entryY=0.939;entryDx=0;entryDy=0;entryPerimeter=0;" parent="1" source="OhinMRKyZW5N7yWiTl8t-112" target="OhinMRKyZW5N7yWiTl8t-133" edge="1">
          <mxGeometry width="50" height="50" relative="1" as="geometry">
            <mxPoint x="80" y="120" as="sourcePoint" />
            <mxPoint x="130" y="70" as="targetPoint" />
          </mxGeometry>
        </mxCell>
        <mxCell id="OhinMRKyZW5N7yWiTl8t-142" value="" style="endArrow=none;html=1;rounded=0;" parent="1" source="OhinMRKyZW5N7yWiTl8t-112" target="OhinMRKyZW5N7yWiTl8t-134" edge="1">
          <mxGeometry width="50" height="50" relative="1" as="geometry">
            <mxPoint x="80" y="120" as="sourcePoint" />
            <mxPoint x="130" y="70" as="targetPoint" />
          </mxGeometry>
        </mxCell>
        <mxCell id="OhinMRKyZW5N7yWiTl8t-146" value="has" style="shape=rhombus;double=1;perimeter=rhombusPerimeter;whiteSpace=wrap;html=1;align=center;" parent="1" vertex="1">
          <mxGeometry x="110" y="290" width="120" height="60" as="geometry" />
        </mxCell>
        <mxCell id="OhinMRKyZW5N7yWiTl8t-147" value="" style="endArrow=none;html=1;rounded=0;" parent="1" source="OhinMRKyZW5N7yWiTl8t-146" target="OhinMRKyZW5N7yWiTl8t-2" edge="1">
          <mxGeometry width="50" height="50" relative="1" as="geometry">
            <mxPoint x="200" y="300" as="sourcePoint" />
            <mxPoint x="260" y="190" as="targetPoint" />
          </mxGeometry>
        </mxCell>
        <mxCell id="OhinMRKyZW5N7yWiTl8t-148" value="lichess_profile" style="whiteSpace=wrap;html=1;align=center;" parent="1" vertex="1">
          <mxGeometry x="-102.5" y="410" width="115" height="40" as="geometry" />
        </mxCell>
        <mxCell id="OhinMRKyZW5N7yWiTl8t-149" value="" style="endArrow=none;html=1;rounded=0;" parent="1" source="OhinMRKyZW5N7yWiTl8t-148" target="OhinMRKyZW5N7yWiTl8t-146" edge="1">
          <mxGeometry width="50" height="50" relative="1" as="geometry">
            <mxPoint x="90" y="240" as="sourcePoint" />
            <mxPoint x="140" y="190" as="targetPoint" />
          </mxGeometry>
        </mxCell>
        <mxCell id="OhinMRKyZW5N7yWiTl8t-151" value="&lt;span style=&quot;border-bottom: 1px dotted&quot;&gt;user_dni&lt;/span&gt;" style="ellipse;whiteSpace=wrap;html=1;align=center;" parent="1" vertex="1">
          <mxGeometry x="-215" y="310" width="100" height="40" as="geometry" />
        </mxCell>
        <mxCell id="OhinMRKyZW5N7yWiTl8t-152" value="" style="endArrow=none;html=1;rounded=0;" parent="1" source="OhinMRKyZW5N7yWiTl8t-148" target="OhinMRKyZW5N7yWiTl8t-151" edge="1">
          <mxGeometry width="50" height="50" relative="1" as="geometry">
            <mxPoint x="90" y="340" as="sourcePoint" />
            <mxPoint x="140" y="290" as="targetPoint" />
          </mxGeometry>
        </mxCell>
        <mxCell id="OhinMRKyZW5N7yWiTl8t-153" value="id" style="ellipse;whiteSpace=wrap;html=1;align=center;" parent="1" vertex="1">
          <mxGeometry x="-330" y="290" width="42.5" height="25" as="geometry" />
        </mxCell>
        <mxCell id="OhinMRKyZW5N7yWiTl8t-154" value="username" style="ellipse;whiteSpace=wrap;html=1;align=center;" parent="1" vertex="1">
          <mxGeometry x="-423.75" y="280" width="70" height="35" as="geometry" />
        </mxCell>
        <mxCell id="OhinMRKyZW5N7yWiTl8t-155" value="updated_at" style="ellipse;whiteSpace=wrap;html=1;align=center;" parent="1" vertex="1">
          <mxGeometry x="-440" y="335" width="80" height="30" as="geometry" />
        </mxCell>
        <mxCell id="OhinMRKyZW5N7yWiTl8t-156" value="blitz_games" style="ellipse;whiteSpace=wrap;html=1;align=center;" parent="1" vertex="1">
          <mxGeometry x="-433.75" y="370" width="90" height="30" as="geometry" />
        </mxCell>
        <mxCell id="OhinMRKyZW5N7yWiTl8t-157" value="blitz_rating" style="ellipse;whiteSpace=wrap;html=1;align=center;" parent="1" vertex="1">
          <mxGeometry x="-410" y="410" width="90" height="30" as="geometry" />
        </mxCell>
        <mxCell id="OhinMRKyZW5N7yWiTl8t-158" value="blitz_rd" style="ellipse;whiteSpace=wrap;html=1;align=center;" parent="1" vertex="1">
          <mxGeometry x="-390" y="460" width="90" height="30" as="geometry" />
        </mxCell>
        <mxCell id="OhinMRKyZW5N7yWiTl8t-159" value="blitz_prog" style="ellipse;whiteSpace=wrap;html=1;align=center;" parent="1" vertex="1">
          <mxGeometry x="-360" y="500" width="90" height="30" as="geometry" />
        </mxCell>
        <mxCell id="OhinMRKyZW5N7yWiTl8t-160" value="blitz_prov" style="ellipse;whiteSpace=wrap;html=1;align=center;" parent="1" vertex="1">
          <mxGeometry x="-400" y="550" width="90" height="30" as="geometry" />
        </mxCell>
        <mxCell id="OhinMRKyZW5N7yWiTl8t-161" value="bullet_games" style="ellipse;whiteSpace=wrap;html=1;align=center;" parent="1" vertex="1">
          <mxGeometry x="-390" y="610" width="90" height="30" as="geometry" />
        </mxCell>
        <mxCell id="OhinMRKyZW5N7yWiTl8t-162" value="" style="endArrow=none;html=1;rounded=0;" parent="1" source="OhinMRKyZW5N7yWiTl8t-153" target="OhinMRKyZW5N7yWiTl8t-148" edge="1">
          <mxGeometry width="50" height="50" relative="1" as="geometry">
            <mxPoint x="90" y="630" as="sourcePoint" />
            <mxPoint x="140" y="580" as="targetPoint" />
          </mxGeometry>
        </mxCell>
        <mxCell id="OhinMRKyZW5N7yWiTl8t-163" value="" style="endArrow=none;html=1;rounded=0;" parent="1" source="OhinMRKyZW5N7yWiTl8t-154" target="OhinMRKyZW5N7yWiTl8t-148" edge="1">
          <mxGeometry width="50" height="50" relative="1" as="geometry">
            <mxPoint x="90" y="630" as="sourcePoint" />
            <mxPoint x="140" y="580" as="targetPoint" />
          </mxGeometry>
        </mxCell>
        <mxCell id="OhinMRKyZW5N7yWiTl8t-164" value="" style="endArrow=none;html=1;rounded=0;" parent="1" source="OhinMRKyZW5N7yWiTl8t-155" target="OhinMRKyZW5N7yWiTl8t-148" edge="1">
          <mxGeometry width="50" height="50" relative="1" as="geometry">
            <mxPoint x="90" y="630" as="sourcePoint" />
            <mxPoint x="140" y="580" as="targetPoint" />
          </mxGeometry>
        </mxCell>
        <mxCell id="OhinMRKyZW5N7yWiTl8t-165" value="" style="endArrow=none;html=1;rounded=0;" parent="1" source="OhinMRKyZW5N7yWiTl8t-156" target="OhinMRKyZW5N7yWiTl8t-148" edge="1">
          <mxGeometry width="50" height="50" relative="1" as="geometry">
            <mxPoint x="90" y="630" as="sourcePoint" />
            <mxPoint x="140" y="580" as="targetPoint" />
          </mxGeometry>
        </mxCell>
        <mxCell id="OhinMRKyZW5N7yWiTl8t-166" value="" style="endArrow=none;html=1;rounded=0;" parent="1" source="OhinMRKyZW5N7yWiTl8t-157" target="OhinMRKyZW5N7yWiTl8t-148" edge="1">
          <mxGeometry width="50" height="50" relative="1" as="geometry">
            <mxPoint x="90" y="630" as="sourcePoint" />
            <mxPoint x="140" y="580" as="targetPoint" />
          </mxGeometry>
        </mxCell>
        <mxCell id="OhinMRKyZW5N7yWiTl8t-167" value="" style="endArrow=none;html=1;rounded=0;" parent="1" source="OhinMRKyZW5N7yWiTl8t-158" target="OhinMRKyZW5N7yWiTl8t-148" edge="1">
          <mxGeometry width="50" height="50" relative="1" as="geometry">
            <mxPoint x="90" y="630" as="sourcePoint" />
            <mxPoint x="140" y="580" as="targetPoint" />
          </mxGeometry>
        </mxCell>
        <mxCell id="OhinMRKyZW5N7yWiTl8t-168" value="" style="endArrow=none;html=1;rounded=0;" parent="1" source="OhinMRKyZW5N7yWiTl8t-159" target="OhinMRKyZW5N7yWiTl8t-148" edge="1">
          <mxGeometry width="50" height="50" relative="1" as="geometry">
            <mxPoint x="90" y="630" as="sourcePoint" />
            <mxPoint x="140" y="580" as="targetPoint" />
          </mxGeometry>
        </mxCell>
        <mxCell id="OhinMRKyZW5N7yWiTl8t-170" value="" style="endArrow=none;html=1;rounded=0;" parent="1" source="OhinMRKyZW5N7yWiTl8t-160" target="OhinMRKyZW5N7yWiTl8t-148" edge="1">
          <mxGeometry width="50" height="50" relative="1" as="geometry">
            <mxPoint x="90" y="630" as="sourcePoint" />
            <mxPoint x="140" y="580" as="targetPoint" />
          </mxGeometry>
        </mxCell>
        <mxCell id="OhinMRKyZW5N7yWiTl8t-171" value="" style="endArrow=none;html=1;rounded=0;" parent="1" source="OhinMRKyZW5N7yWiTl8t-161" target="OhinMRKyZW5N7yWiTl8t-148" edge="1">
          <mxGeometry width="50" height="50" relative="1" as="geometry">
            <mxPoint x="90" y="630" as="sourcePoint" />
            <mxPoint x="140" y="580" as="targetPoint" />
          </mxGeometry>
        </mxCell>
        <mxCell id="OhinMRKyZW5N7yWiTl8t-172" value="bullet_rating" style="ellipse;whiteSpace=wrap;html=1;align=center;" parent="1" vertex="1">
          <mxGeometry x="-330" y="640" width="80" height="30" as="geometry" />
        </mxCell>
        <mxCell id="OhinMRKyZW5N7yWiTl8t-174" value="" style="endArrow=none;html=1;rounded=0;" parent="1" source="OhinMRKyZW5N7yWiTl8t-172" target="OhinMRKyZW5N7yWiTl8t-148" edge="1">
          <mxGeometry width="50" height="50" relative="1" as="geometry">
            <mxPoint x="90" y="630" as="sourcePoint" />
            <mxPoint x="140" y="580" as="targetPoint" />
          </mxGeometry>
        </mxCell>
        <mxCell id="OhinMRKyZW5N7yWiTl8t-175" value="bullet_rd" style="ellipse;whiteSpace=wrap;html=1;align=center;" parent="1" vertex="1">
          <mxGeometry x="-250" y="612.5" width="80" height="30" as="geometry" />
        </mxCell>
        <mxCell id="OhinMRKyZW5N7yWiTl8t-176" value="" style="endArrow=none;html=1;rounded=0;" parent="1" source="OhinMRKyZW5N7yWiTl8t-175" target="OhinMRKyZW5N7yWiTl8t-148" edge="1">
          <mxGeometry width="50" height="50" relative="1" as="geometry">
            <mxPoint x="90" y="630" as="sourcePoint" />
            <mxPoint x="140" y="580" as="targetPoint" />
          </mxGeometry>
        </mxCell>
        <mxCell id="OhinMRKyZW5N7yWiTl8t-177" value="bullet_prog" style="ellipse;whiteSpace=wrap;html=1;align=center;" parent="1" vertex="1">
          <mxGeometry x="-237.5" y="662.5" width="85" height="30" as="geometry" />
        </mxCell>
        <mxCell id="OhinMRKyZW5N7yWiTl8t-178" value="" style="endArrow=none;html=1;rounded=0;" parent="1" source="OhinMRKyZW5N7yWiTl8t-177" target="OhinMRKyZW5N7yWiTl8t-148" edge="1">
          <mxGeometry width="50" height="50" relative="1" as="geometry">
            <mxPoint x="90" y="630" as="sourcePoint" />
            <mxPoint x="140" y="580" as="targetPoint" />
          </mxGeometry>
        </mxCell>
        <mxCell id="OhinMRKyZW5N7yWiTl8t-179" value="bullet_prov" style="ellipse;whiteSpace=wrap;html=1;align=center;" parent="1" vertex="1">
          <mxGeometry x="-203.75" y="705" width="80" height="30" as="geometry" />
        </mxCell>
        <mxCell id="OhinMRKyZW5N7yWiTl8t-180" value="" style="endArrow=none;html=1;rounded=0;" parent="1" source="OhinMRKyZW5N7yWiTl8t-179" target="OhinMRKyZW5N7yWiTl8t-148" edge="1">
          <mxGeometry width="50" height="50" relative="1" as="geometry">
            <mxPoint x="90" y="630" as="sourcePoint" />
            <mxPoint x="140" y="580" as="targetPoint" />
          </mxGeometry>
        </mxCell>
        <mxCell id="OhinMRKyZW5N7yWiTl8t-181" value="classical_games" style="ellipse;whiteSpace=wrap;html=1;align=center;" parent="1" vertex="1">
          <mxGeometry x="-168.75" y="745" width="100" height="30" as="geometry" />
        </mxCell>
        <mxCell id="OhinMRKyZW5N7yWiTl8t-183" value="" style="endArrow=none;html=1;rounded=0;" parent="1" source="OhinMRKyZW5N7yWiTl8t-181" target="OhinMRKyZW5N7yWiTl8t-148" edge="1">
          <mxGeometry width="50" height="50" relative="1" as="geometry">
            <mxPoint x="90" y="630" as="sourcePoint" />
            <mxPoint x="140" y="580" as="targetPoint" />
          </mxGeometry>
        </mxCell>
        <mxCell id="OhinMRKyZW5N7yWiTl8t-184" value="classical_rating" style="ellipse;whiteSpace=wrap;html=1;align=center;" parent="1" vertex="1">
          <mxGeometry x="-103.75" y="780" width="100" height="30" as="geometry" />
        </mxCell>
        <mxCell id="OhinMRKyZW5N7yWiTl8t-185" value="" style="endArrow=none;html=1;rounded=0;" parent="1" source="OhinMRKyZW5N7yWiTl8t-184" target="OhinMRKyZW5N7yWiTl8t-148" edge="1">
          <mxGeometry width="50" height="50" relative="1" as="geometry">
            <mxPoint x="380" y="630" as="sourcePoint" />
            <mxPoint x="430" y="580" as="targetPoint" />
          </mxGeometry>
        </mxCell>
        <mxCell id="OhinMRKyZW5N7yWiTl8t-187" value="classical_rd" style="ellipse;whiteSpace=wrap;html=1;align=center;" parent="1" vertex="1">
          <mxGeometry x="-53.75" y="750" width="100" height="30" as="geometry" />
        </mxCell>
        <mxCell id="OhinMRKyZW5N7yWiTl8t-189" value="" style="endArrow=none;html=1;rounded=0;" parent="1" source="OhinMRKyZW5N7yWiTl8t-187" target="OhinMRKyZW5N7yWiTl8t-148" edge="1">
          <mxGeometry width="50" height="50" relative="1" as="geometry">
            <mxPoint x="380" y="630" as="sourcePoint" />
            <mxPoint x="430" y="580" as="targetPoint" />
          </mxGeometry>
        </mxCell>
        <mxCell id="OhinMRKyZW5N7yWiTl8t-190" value="classical_prog" style="ellipse;whiteSpace=wrap;html=1;align=center;" parent="1" vertex="1">
          <mxGeometry x="13.75" y="780" width="100" height="30" as="geometry" />
        </mxCell>
        <mxCell id="OhinMRKyZW5N7yWiTl8t-191" value="" style="endArrow=none;html=1;rounded=0;" parent="1" source="OhinMRKyZW5N7yWiTl8t-190" target="OhinMRKyZW5N7yWiTl8t-148" edge="1">
          <mxGeometry width="50" height="50" relative="1" as="geometry">
            <mxPoint x="380" y="630" as="sourcePoint" />
            <mxPoint x="430" y="580" as="targetPoint" />
          </mxGeometry>
        </mxCell>
        <mxCell id="OhinMRKyZW5N7yWiTl8t-192" value="classical_prov" style="ellipse;whiteSpace=wrap;html=1;align=center;" parent="1" vertex="1">
          <mxGeometry x="83.75" y="810" width="100" height="30" as="geometry" />
        </mxCell>
        <mxCell id="OhinMRKyZW5N7yWiTl8t-193" value="" style="endArrow=none;html=1;rounded=0;" parent="1" source="OhinMRKyZW5N7yWiTl8t-192" target="OhinMRKyZW5N7yWiTl8t-148" edge="1">
          <mxGeometry width="50" height="50" relative="1" as="geometry">
            <mxPoint x="380" y="630" as="sourcePoint" />
            <mxPoint x="430" y="580" as="targetPoint" />
          </mxGeometry>
        </mxCell>
        <mxCell id="OhinMRKyZW5N7yWiTl8t-194" value="rapid_games" style="ellipse;whiteSpace=wrap;html=1;align=center;" parent="1" vertex="1">
          <mxGeometry x="161.25" y="840" width="100" height="30" as="geometry" />
        </mxCell>
        <mxCell id="OhinMRKyZW5N7yWiTl8t-195" value="rapid_rating" style="ellipse;whiteSpace=wrap;html=1;align=center;" parent="1" vertex="1">
          <mxGeometry x="193.75" y="800" width="100" height="30" as="geometry" />
        </mxCell>
        <mxCell id="OhinMRKyZW5N7yWiTl8t-196" value="rapid_rd" style="ellipse;whiteSpace=wrap;html=1;align=center;" parent="1" vertex="1">
          <mxGeometry x="226.25" y="770" width="100" height="25" as="geometry" />
        </mxCell>
        <mxCell id="OhinMRKyZW5N7yWiTl8t-197" value="" style="endArrow=none;html=1;rounded=0;" parent="1" source="OhinMRKyZW5N7yWiTl8t-194" target="OhinMRKyZW5N7yWiTl8t-148" edge="1">
          <mxGeometry width="50" height="50" relative="1" as="geometry">
            <mxPoint x="380" y="630" as="sourcePoint" />
            <mxPoint x="430" y="580" as="targetPoint" />
          </mxGeometry>
        </mxCell>
        <mxCell id="OhinMRKyZW5N7yWiTl8t-198" value="" style="endArrow=none;html=1;rounded=0;" parent="1" source="OhinMRKyZW5N7yWiTl8t-195" target="OhinMRKyZW5N7yWiTl8t-148" edge="1">
          <mxGeometry width="50" height="50" relative="1" as="geometry">
            <mxPoint x="380" y="630" as="sourcePoint" />
            <mxPoint x="430" y="580" as="targetPoint" />
          </mxGeometry>
        </mxCell>
        <mxCell id="OhinMRKyZW5N7yWiTl8t-199" value="" style="endArrow=none;html=1;rounded=0;" parent="1" source="OhinMRKyZW5N7yWiTl8t-196" target="OhinMRKyZW5N7yWiTl8t-148" edge="1">
          <mxGeometry width="50" height="50" relative="1" as="geometry">
            <mxPoint x="380" y="630" as="sourcePoint" />
            <mxPoint x="430" y="580" as="targetPoint" />
          </mxGeometry>
        </mxCell>
        <mxCell id="OhinMRKyZW5N7yWiTl8t-201" value="rapid_prog" style="ellipse;whiteSpace=wrap;html=1;align=center;" parent="1" vertex="1">
          <mxGeometry x="330" y="780" width="75" height="30" as="geometry" />
        </mxCell>
        <mxCell id="OhinMRKyZW5N7yWiTl8t-202" value="" style="endArrow=none;html=1;rounded=0;" parent="1" source="OhinMRKyZW5N7yWiTl8t-148" target="OhinMRKyZW5N7yWiTl8t-201" edge="1">
          <mxGeometry width="50" height="50" relative="1" as="geometry">
            <mxPoint x="380" y="630" as="sourcePoint" />
            <mxPoint x="430" y="580" as="targetPoint" />
          </mxGeometry>
        </mxCell>
        <mxCell id="OhinMRKyZW5N7yWiTl8t-203" value="rapid_prov" style="ellipse;whiteSpace=wrap;html=1;align=center;" parent="1" vertex="1">
          <mxGeometry x="325" y="730" width="75" height="25" as="geometry" />
        </mxCell>
        <mxCell id="OhinMRKyZW5N7yWiTl8t-204" value="" style="endArrow=none;html=1;rounded=0;" parent="1" source="OhinMRKyZW5N7yWiTl8t-148" target="OhinMRKyZW5N7yWiTl8t-203" edge="1">
          <mxGeometry width="50" height="50" relative="1" as="geometry">
            <mxPoint x="380" y="630" as="sourcePoint" />
            <mxPoint x="430" y="580" as="targetPoint" />
          </mxGeometry>
        </mxCell>
        <mxCell id="OhinMRKyZW5N7yWiTl8t-205" value="puzzle_games" style="ellipse;whiteSpace=wrap;html=1;align=center;" parent="1" vertex="1">
          <mxGeometry x="332.5" y="690" width="95" height="30" as="geometry" />
        </mxCell>
        <mxCell id="OhinMRKyZW5N7yWiTl8t-206" value="puzzle_rating" style="ellipse;whiteSpace=wrap;html=1;align=center;" parent="1" vertex="1">
          <mxGeometry x="345" y="650" width="100" height="30" as="geometry" />
        </mxCell>
        <mxCell id="OhinMRKyZW5N7yWiTl8t-207" value="puzzle_rd" style="ellipse;whiteSpace=wrap;html=1;align=center;" parent="1" vertex="1">
          <mxGeometry x="362.5" y="615" width="75" height="25" as="geometry" />
        </mxCell>
        <mxCell id="OhinMRKyZW5N7yWiTl8t-209" value="puzzle_prog" style="ellipse;whiteSpace=wrap;html=1;align=center;" parent="1" vertex="1">
          <mxGeometry x="332.5" y="580" width="77.5" height="30" as="geometry" />
        </mxCell>
        <mxCell id="OhinMRKyZW5N7yWiTl8t-210" value="puzzle_prov" style="ellipse;whiteSpace=wrap;html=1;align=center;" parent="1" vertex="1">
          <mxGeometry x="330" y="535" width="80" height="30" as="geometry" />
        </mxCell>
        <mxCell id="OhinMRKyZW5N7yWiTl8t-211" value="" style="endArrow=none;html=1;rounded=0;exitX=0.75;exitY=1;exitDx=0;exitDy=0;" parent="1" source="OhinMRKyZW5N7yWiTl8t-148" target="OhinMRKyZW5N7yWiTl8t-205" edge="1">
          <mxGeometry width="50" height="50" relative="1" as="geometry">
            <mxPoint x="70" y="630" as="sourcePoint" />
            <mxPoint x="120" y="580" as="targetPoint" />
          </mxGeometry>
        </mxCell>
        <mxCell id="OhinMRKyZW5N7yWiTl8t-212" value="" style="endArrow=none;html=1;rounded=0;exitX=0.75;exitY=1;exitDx=0;exitDy=0;" parent="1" source="OhinMRKyZW5N7yWiTl8t-148" target="OhinMRKyZW5N7yWiTl8t-206" edge="1">
          <mxGeometry width="50" height="50" relative="1" as="geometry">
            <mxPoint x="70" y="630" as="sourcePoint" />
            <mxPoint x="120" y="580" as="targetPoint" />
          </mxGeometry>
        </mxCell>
        <mxCell id="OhinMRKyZW5N7yWiTl8t-213" value="" style="endArrow=none;html=1;rounded=0;entryX=0;entryY=0.5;entryDx=0;entryDy=0;" parent="1" source="OhinMRKyZW5N7yWiTl8t-148" target="OhinMRKyZW5N7yWiTl8t-207" edge="1">
          <mxGeometry width="50" height="50" relative="1" as="geometry">
            <mxPoint x="70" y="630" as="sourcePoint" />
            <mxPoint x="120" y="580" as="targetPoint" />
          </mxGeometry>
        </mxCell>
        <mxCell id="OhinMRKyZW5N7yWiTl8t-214" value="" style="endArrow=none;html=1;rounded=0;" parent="1" source="OhinMRKyZW5N7yWiTl8t-148" target="OhinMRKyZW5N7yWiTl8t-209" edge="1">
          <mxGeometry width="50" height="50" relative="1" as="geometry">
            <mxPoint x="70" y="630" as="sourcePoint" />
            <mxPoint x="310" y="570" as="targetPoint" />
          </mxGeometry>
        </mxCell>
        <mxCell id="OhinMRKyZW5N7yWiTl8t-215" value="" style="endArrow=none;html=1;rounded=0;" parent="1" source="OhinMRKyZW5N7yWiTl8t-148" target="OhinMRKyZW5N7yWiTl8t-210" edge="1">
          <mxGeometry width="50" height="50" relative="1" as="geometry">
            <mxPoint x="70" y="630" as="sourcePoint" />
            <mxPoint x="120" y="580" as="targetPoint" />
          </mxGeometry>
        </mxCell>
        <mxCell id="OhinMRKyZW5N7yWiTl8t-217" value="" style="endArrow=none;html=1;rounded=0;" parent="1" source="OhinMRKyZW5N7yWiTl8t-2" target="OhinMRKyZW5N7yWiTl8t-241" edge="1">
          <mxGeometry width="50" height="50" relative="1" as="geometry">
            <mxPoint x="390" y="140" as="sourcePoint" />
            <mxPoint x="466.8064516129034" y="55.40322580645147" as="targetPoint" />
          </mxGeometry>
        </mxCell>
        <mxCell id="OhinMRKyZW5N7yWiTl8t-219" value="1" style="edgeLabel;html=1;align=center;verticalAlign=middle;resizable=0;points=[];" parent="OhinMRKyZW5N7yWiTl8t-217" vertex="1" connectable="0">
          <mxGeometry x="-0.7174" relative="1" as="geometry">
            <mxPoint x="13" y="-11" as="offset" />
          </mxGeometry>
        </mxCell>
        <mxCell id="OhinMRKyZW5N7yWiTl8t-220" value="1" style="edgeLabel;html=1;align=center;verticalAlign=middle;resizable=0;points=[];" parent="OhinMRKyZW5N7yWiTl8t-217" vertex="1" connectable="0">
          <mxGeometry x="0.8355" y="2" relative="1" as="geometry">
            <mxPoint x="9" as="offset" />
          </mxGeometry>
        </mxCell>
        <mxCell id="OhinMRKyZW5N7yWiTl8t-218" value="adress" style="whiteSpace=wrap;html=1;align=center;" parent="1" vertex="1">
          <mxGeometry x="405" y="-219.99999999999997" width="100" height="40" as="geometry" />
        </mxCell>
        <mxCell id="OhinMRKyZW5N7yWiTl8t-221" value="" style="endArrow=none;html=1;rounded=0;" parent="1" source="OhinMRKyZW5N7yWiTl8t-241" target="OhinMRKyZW5N7yWiTl8t-218" edge="1">
          <mxGeometry width="50" height="50" relative="1" as="geometry">
            <mxPoint x="475.5614676216928" y="0.2192661891535863" as="sourcePoint" />
            <mxPoint x="426.5" y="-45.82" as="targetPoint" />
          </mxGeometry>
        </mxCell>
        <mxCell id="OhinMRKyZW5N7yWiTl8t-222" value="1" style="edgeLabel;html=1;align=center;verticalAlign=middle;resizable=0;points=[];" parent="OhinMRKyZW5N7yWiTl8t-221" vertex="1" connectable="0">
          <mxGeometry x="-0.6643" y="2" relative="1" as="geometry">
            <mxPoint x="15" as="offset" />
          </mxGeometry>
        </mxCell>
        <mxCell id="OhinMRKyZW5N7yWiTl8t-223" value="1" style="edgeLabel;html=1;align=center;verticalAlign=middle;resizable=0;points=[];" parent="OhinMRKyZW5N7yWiTl8t-221" vertex="1" connectable="0">
          <mxGeometry x="0.8024" y="-1" relative="1" as="geometry">
            <mxPoint x="12" as="offset" />
          </mxGeometry>
        </mxCell>
        <mxCell id="OhinMRKyZW5N7yWiTl8t-224" value="postal_code" style="ellipse;whiteSpace=wrap;html=1;align=center;" parent="1" vertex="1">
          <mxGeometry x="620" y="-300" width="80" height="30" as="geometry" />
        </mxCell>
        <mxCell id="OhinMRKyZW5N7yWiTl8t-225" value="apartment_number" style="ellipse;whiteSpace=wrap;html=1;align=center;" parent="1" vertex="1">
          <mxGeometry x="607.5" y="-350" width="115" height="30" as="geometry" />
        </mxCell>
        <mxCell id="OhinMRKyZW5N7yWiTl8t-226" value="building" style="ellipse;whiteSpace=wrap;html=1;align=center;" parent="1" vertex="1">
          <mxGeometry x="607.5" y="-390.83" width="65" height="20" as="geometry" />
        </mxCell>
        <mxCell id="OhinMRKyZW5N7yWiTl8t-227" value="street" style="ellipse;whiteSpace=wrap;html=1;align=center;" parent="1" vertex="1">
          <mxGeometry x="580" y="-420.83" width="60" height="20" as="geometry" />
        </mxCell>
        <mxCell id="OhinMRKyZW5N7yWiTl8t-228" value="city" style="ellipse;whiteSpace=wrap;html=1;align=center;" parent="1" vertex="1">
          <mxGeometry x="520" y="-400.83" width="60" height="20" as="geometry" />
        </mxCell>
        <mxCell id="OhinMRKyZW5N7yWiTl8t-235" value="" style="endArrow=none;html=1;rounded=0;" parent="1" source="OhinMRKyZW5N7yWiTl8t-218" target="OhinMRKyZW5N7yWiTl8t-266" edge="1">
          <mxGeometry width="50" height="50" relative="1" as="geometry">
            <mxPoint x="390" y="-150" as="sourcePoint" />
            <mxPoint x="455" y="-370" as="targetPoint" />
          </mxGeometry>
        </mxCell>
        <mxCell id="OhinMRKyZW5N7yWiTl8t-236" value="" style="endArrow=none;html=1;rounded=0;" parent="1" source="OhinMRKyZW5N7yWiTl8t-218" target="OhinMRKyZW5N7yWiTl8t-228" edge="1">
          <mxGeometry width="50" height="50" relative="1" as="geometry">
            <mxPoint x="390" y="-150" as="sourcePoint" />
            <mxPoint x="440" y="-200" as="targetPoint" />
          </mxGeometry>
        </mxCell>
        <mxCell id="OhinMRKyZW5N7yWiTl8t-237" value="" style="endArrow=none;html=1;rounded=0;" parent="1" source="OhinMRKyZW5N7yWiTl8t-218" target="OhinMRKyZW5N7yWiTl8t-227" edge="1">
          <mxGeometry width="50" height="50" relative="1" as="geometry">
            <mxPoint x="390" y="-150" as="sourcePoint" />
            <mxPoint x="440" y="-200" as="targetPoint" />
          </mxGeometry>
        </mxCell>
        <mxCell id="OhinMRKyZW5N7yWiTl8t-238" value="" style="endArrow=none;html=1;rounded=0;" parent="1" source="OhinMRKyZW5N7yWiTl8t-218" target="OhinMRKyZW5N7yWiTl8t-226" edge="1">
          <mxGeometry width="50" height="50" relative="1" as="geometry">
            <mxPoint x="393.5" y="-215.82999999999998" as="sourcePoint" />
            <mxPoint x="593.5" y="-255.82999999999998" as="targetPoint" />
          </mxGeometry>
        </mxCell>
        <mxCell id="OhinMRKyZW5N7yWiTl8t-239" value="" style="endArrow=none;html=1;rounded=0;" parent="1" source="OhinMRKyZW5N7yWiTl8t-218" target="OhinMRKyZW5N7yWiTl8t-225" edge="1">
          <mxGeometry width="50" height="50" relative="1" as="geometry">
            <mxPoint x="393.5" y="-215.82999999999998" as="sourcePoint" />
            <mxPoint x="443.5" y="-265.83" as="targetPoint" />
          </mxGeometry>
        </mxCell>
        <mxCell id="OhinMRKyZW5N7yWiTl8t-240" value="" style="endArrow=none;html=1;rounded=0;" parent="1" source="OhinMRKyZW5N7yWiTl8t-218" target="OhinMRKyZW5N7yWiTl8t-224" edge="1">
          <mxGeometry width="50" height="50" relative="1" as="geometry">
            <mxPoint x="393.5" y="-215.82999999999998" as="sourcePoint" />
            <mxPoint x="443.5" y="-265.83" as="targetPoint" />
          </mxGeometry>
        </mxCell>
        <mxCell id="OhinMRKyZW5N7yWiTl8t-241" value="Relationship" style="shape=rhombus;perimeter=rhombusPerimeter;whiteSpace=wrap;html=1;align=center;" parent="1" vertex="1">
          <mxGeometry x="395" y="-75" width="120" height="60" as="geometry" />
        </mxCell>
        <mxCell id="OhinMRKyZW5N7yWiTl8t-243" value="country" style="whiteSpace=wrap;html=1;align=center;" parent="1" vertex="1">
          <mxGeometry x="900" y="-220" width="100" height="40" as="geometry" />
        </mxCell>
        <mxCell id="OhinMRKyZW5N7yWiTl8t-244" value="numeric_code" style="ellipse;whiteSpace=wrap;html=1;align=center;" parent="1" vertex="1">
          <mxGeometry x="827" y="-430.83" width="90" height="30" as="geometry" />
        </mxCell>
        <mxCell id="OhinMRKyZW5N7yWiTl8t-245" value="short_name" style="ellipse;whiteSpace=wrap;html=1;align=center;" parent="1" vertex="1">
          <mxGeometry x="780" y="-389.66" width="76" height="36" as="geometry" />
        </mxCell>
        <mxCell id="OhinMRKyZW5N7yWiTl8t-246" value="full_name" style="ellipse;whiteSpace=wrap;html=1;align=center;" parent="1" vertex="1">
          <mxGeometry x="927" y="-400.83" width="75" height="30" as="geometry" />
        </mxCell>
        <mxCell id="OhinMRKyZW5N7yWiTl8t-247" value="alpha_2_code" style="ellipse;whiteSpace=wrap;html=1;align=center;" parent="1" vertex="1">
          <mxGeometry x="989.5" y="-430.83" width="90" height="30" as="geometry" />
        </mxCell>
        <mxCell id="OhinMRKyZW5N7yWiTl8t-249" value="alpha_3_code" style="ellipse;whiteSpace=wrap;html=1;align=center;" parent="1" vertex="1">
          <mxGeometry x="1049.5" y="-386.65999999999997" width="101.25" height="30" as="geometry" />
        </mxCell>
        <mxCell id="OhinMRKyZW5N7yWiTl8t-250" value="" style="endArrow=none;html=1;rounded=0;" parent="1" source="OhinMRKyZW5N7yWiTl8t-243" target="OhinMRKyZW5N7yWiTl8t-245" edge="1">
          <mxGeometry width="50" height="50" relative="1" as="geometry">
            <mxPoint x="660.62" y="-180.83" as="sourcePoint" />
            <mxPoint x="848.4399393446083" y="-341.4567147107278" as="targetPoint" />
          </mxGeometry>
        </mxCell>
        <mxCell id="OhinMRKyZW5N7yWiTl8t-251" value="" style="endArrow=none;html=1;rounded=0;" parent="1" source="OhinMRKyZW5N7yWiTl8t-243" target="OhinMRKyZW5N7yWiTl8t-244" edge="1">
          <mxGeometry width="50" height="50" relative="1" as="geometry">
            <mxPoint x="660.62" y="-180.83" as="sourcePoint" />
            <mxPoint x="710.62" y="-230.83" as="targetPoint" />
          </mxGeometry>
        </mxCell>
        <mxCell id="OhinMRKyZW5N7yWiTl8t-252" value="" style="endArrow=none;html=1;rounded=0;" parent="1" source="OhinMRKyZW5N7yWiTl8t-243" target="OhinMRKyZW5N7yWiTl8t-246" edge="1">
          <mxGeometry width="50" height="50" relative="1" as="geometry">
            <mxPoint x="660.62" y="-180.83" as="sourcePoint" />
            <mxPoint x="710.62" y="-230.83" as="targetPoint" />
          </mxGeometry>
        </mxCell>
        <mxCell id="OhinMRKyZW5N7yWiTl8t-253" value="" style="endArrow=none;html=1;rounded=0;" parent="1" source="OhinMRKyZW5N7yWiTl8t-243" target="OhinMRKyZW5N7yWiTl8t-247" edge="1">
          <mxGeometry width="50" height="50" relative="1" as="geometry">
            <mxPoint x="660.62" y="-180.83" as="sourcePoint" />
            <mxPoint x="710.62" y="-230.83" as="targetPoint" />
          </mxGeometry>
        </mxCell>
        <mxCell id="OhinMRKyZW5N7yWiTl8t-254" value="" style="endArrow=none;html=1;rounded=0;" parent="1" source="OhinMRKyZW5N7yWiTl8t-243" target="OhinMRKyZW5N7yWiTl8t-249" edge="1">
          <mxGeometry width="50" height="50" relative="1" as="geometry">
            <mxPoint x="660.62" y="-180.83" as="sourcePoint" />
            <mxPoint x="710.62" y="-230.83" as="targetPoint" />
          </mxGeometry>
        </mxCell>
        <mxCell id="OhinMRKyZW5N7yWiTl8t-255" value="country_subdivision" style="whiteSpace=wrap;html=1;align=center;" parent="1" vertex="1">
          <mxGeometry x="642.5" y="-110" width="132.5" height="40" as="geometry" />
        </mxCell>
        <mxCell id="OhinMRKyZW5N7yWiTl8t-256" value="id" style="ellipse;whiteSpace=wrap;html=1;align=center;" parent="1" vertex="1">
          <mxGeometry x="605" y="20" width="50" height="30" as="geometry" />
        </mxCell>
        <mxCell id="OhinMRKyZW5N7yWiTl8t-257" value="name" style="ellipse;whiteSpace=wrap;html=1;align=center;" parent="1" vertex="1">
          <mxGeometry x="662.5" width="65" height="30" as="geometry" />
        </mxCell>
        <mxCell id="OhinMRKyZW5N7yWiTl8t-258" value="kind_subdivision_name" style="ellipse;whiteSpace=wrap;html=1;align=center;" parent="1" vertex="1">
          <mxGeometry x="686" y="30" width="155" height="40" as="geometry" />
        </mxCell>
        <mxCell id="OhinMRKyZW5N7yWiTl8t-259" value="code" style="ellipse;whiteSpace=wrap;html=1;align=center;" parent="1" vertex="1">
          <mxGeometry x="765" y="-10" width="70" height="30" as="geometry" />
        </mxCell>
        <mxCell id="OhinMRKyZW5N7yWiTl8t-260" value="country_numeric_code" style="ellipse;whiteSpace=wrap;html=1;align=center;" parent="1" vertex="1">
          <mxGeometry x="834.9999999999999" y="10" width="150" height="40" as="geometry" />
        </mxCell>
        <mxCell id="OhinMRKyZW5N7yWiTl8t-261" value="" style="endArrow=none;html=1;rounded=0;" parent="1" source="OhinMRKyZW5N7yWiTl8t-255" target="OhinMRKyZW5N7yWiTl8t-256" edge="1">
          <mxGeometry width="50" height="50" relative="1" as="geometry">
            <mxPoint x="780" y="56" as="sourcePoint" />
            <mxPoint x="830" y="6" as="targetPoint" />
          </mxGeometry>
        </mxCell>
        <mxCell id="OhinMRKyZW5N7yWiTl8t-262" value="" style="endArrow=none;html=1;rounded=0;" parent="1" source="OhinMRKyZW5N7yWiTl8t-255" target="OhinMRKyZW5N7yWiTl8t-257" edge="1">
          <mxGeometry width="50" height="50" relative="1" as="geometry">
            <mxPoint x="780" y="56" as="sourcePoint" />
            <mxPoint x="830" y="6" as="targetPoint" />
          </mxGeometry>
        </mxCell>
        <mxCell id="OhinMRKyZW5N7yWiTl8t-263" value="" style="endArrow=none;html=1;rounded=0;" parent="1" source="OhinMRKyZW5N7yWiTl8t-255" target="OhinMRKyZW5N7yWiTl8t-258" edge="1">
          <mxGeometry width="50" height="50" relative="1" as="geometry">
            <mxPoint x="780" y="56" as="sourcePoint" />
            <mxPoint x="830" y="6" as="targetPoint" />
          </mxGeometry>
        </mxCell>
        <mxCell id="OhinMRKyZW5N7yWiTl8t-264" value="" style="endArrow=none;html=1;rounded=0;" parent="1" source="OhinMRKyZW5N7yWiTl8t-255" target="OhinMRKyZW5N7yWiTl8t-259" edge="1">
          <mxGeometry width="50" height="50" relative="1" as="geometry">
            <mxPoint x="780" y="56" as="sourcePoint" />
            <mxPoint x="830" y="6" as="targetPoint" />
          </mxGeometry>
        </mxCell>
        <mxCell id="OhinMRKyZW5N7yWiTl8t-265" value="" style="endArrow=none;html=1;rounded=0;" parent="1" source="OhinMRKyZW5N7yWiTl8t-255" target="OhinMRKyZW5N7yWiTl8t-260" edge="1">
          <mxGeometry width="50" height="50" relative="1" as="geometry">
            <mxPoint x="780" y="56" as="sourcePoint" />
            <mxPoint x="830" y="6" as="targetPoint" />
          </mxGeometry>
        </mxCell>
        <mxCell id="OhinMRKyZW5N7yWiTl8t-266" value="&lt;span style=&quot;border-bottom: 1px dotted&quot;&gt;user_dni&lt;/span&gt;" style="ellipse;whiteSpace=wrap;html=1;align=center;" parent="1" vertex="1">
          <mxGeometry x="426" y="-430.83" width="100" height="40" as="geometry" />
        </mxCell>
        <mxCell id="OhinMRKyZW5N7yWiTl8t-268" value="has" style="shape=rhombus;perimeter=rhombusPerimeter;whiteSpace=wrap;html=1;align=center;" parent="1" vertex="1">
          <mxGeometry x="660" y="-230" width="120" height="60" as="geometry" />
        </mxCell>
        <mxCell id="OhinMRKyZW5N7yWiTl8t-269" value="" style="endArrow=none;html=1;rounded=0;exitX=1;exitY=0.5;exitDx=0;exitDy=0;" parent="1" source="OhinMRKyZW5N7yWiTl8t-218" target="OhinMRKyZW5N7yWiTl8t-268" edge="1">
          <mxGeometry width="50" height="50" relative="1" as="geometry">
            <mxPoint x="490" y="-220" as="sourcePoint" />
            <mxPoint x="540" y="-270" as="targetPoint" />
          </mxGeometry>
        </mxCell>
        <mxCell id="OhinMRKyZW5N7yWiTl8t-271" value="1" style="edgeLabel;html=1;align=center;verticalAlign=middle;resizable=0;points=[];" parent="OhinMRKyZW5N7yWiTl8t-269" vertex="1" connectable="0">
          <mxGeometry x="-0.6817" relative="1" as="geometry">
            <mxPoint y="-10" as="offset" />
          </mxGeometry>
        </mxCell>
        <mxCell id="OhinMRKyZW5N7yWiTl8t-274" value="N" style="edgeLabel;html=1;align=center;verticalAlign=middle;resizable=0;points=[];" parent="OhinMRKyZW5N7yWiTl8t-269" vertex="1" connectable="0">
          <mxGeometry x="0.7161" relative="1" as="geometry">
            <mxPoint y="-10" as="offset" />
          </mxGeometry>
        </mxCell>
        <mxCell id="OhinMRKyZW5N7yWiTl8t-270" value="" style="endArrow=none;html=1;rounded=0;" parent="1" source="OhinMRKyZW5N7yWiTl8t-268" target="OhinMRKyZW5N7yWiTl8t-243" edge="1">
          <mxGeometry width="50" height="50" relative="1" as="geometry">
            <mxPoint x="490" y="-220" as="sourcePoint" />
            <mxPoint x="540" y="-270" as="targetPoint" />
          </mxGeometry>
        </mxCell>
        <mxCell id="OhinMRKyZW5N7yWiTl8t-273" value="1" style="edgeLabel;html=1;align=center;verticalAlign=middle;resizable=0;points=[];" parent="OhinMRKyZW5N7yWiTl8t-270" vertex="1" connectable="0">
          <mxGeometry x="-0.7" relative="1" as="geometry">
            <mxPoint x="-5" y="-10" as="offset" />
          </mxGeometry>
        </mxCell>
        <mxCell id="OhinMRKyZW5N7yWiTl8t-275" value="1" style="edgeLabel;html=1;align=center;verticalAlign=middle;resizable=0;points=[];" parent="OhinMRKyZW5N7yWiTl8t-270" vertex="1" connectable="0">
          <mxGeometry x="0.7722" y="3" relative="1" as="geometry">
            <mxPoint y="-7" as="offset" />
          </mxGeometry>
        </mxCell>
        <mxCell id="OhinMRKyZW5N7yWiTl8t-276" value="has" style="shape=rhombus;perimeter=rhombusPerimeter;whiteSpace=wrap;html=1;align=center;" parent="1" vertex="1">
          <mxGeometry x="520" y="-160" width="60" height="40" as="geometry" />
        </mxCell>
        <mxCell id="OhinMRKyZW5N7yWiTl8t-277" value="" style="endArrow=none;html=1;rounded=0;entryX=0.5;entryY=1;entryDx=0;entryDy=0;" parent="1" source="OhinMRKyZW5N7yWiTl8t-255" target="OhinMRKyZW5N7yWiTl8t-276" edge="1">
          <mxGeometry width="50" height="50" relative="1" as="geometry">
            <mxPoint x="490" y="-50" as="sourcePoint" />
            <mxPoint x="540" y="-100" as="targetPoint" />
          </mxGeometry>
        </mxCell>
        <mxCell id="OhinMRKyZW5N7yWiTl8t-289" value="1" style="edgeLabel;html=1;align=center;verticalAlign=middle;resizable=0;points=[];" parent="OhinMRKyZW5N7yWiTl8t-277" vertex="1" connectable="0">
          <mxGeometry x="0.5953" y="-1" relative="1" as="geometry">
            <mxPoint x="-14" y="7" as="offset" />
          </mxGeometry>
        </mxCell>
        <mxCell id="OhinMRKyZW5N7yWiTl8t-290" value="1" style="edgeLabel;html=1;align=center;verticalAlign=middle;resizable=0;points=[];" parent="OhinMRKyZW5N7yWiTl8t-277" vertex="1" connectable="0">
          <mxGeometry x="-0.6604" relative="1" as="geometry">
            <mxPoint x="-7" y="5" as="offset" />
          </mxGeometry>
        </mxCell>
        <mxCell id="OhinMRKyZW5N7yWiTl8t-278" value="" style="endArrow=none;html=1;rounded=0;exitX=0.5;exitY=0;exitDx=0;exitDy=0;" parent="1" source="OhinMRKyZW5N7yWiTl8t-276" target="OhinMRKyZW5N7yWiTl8t-218" edge="1">
          <mxGeometry width="50" height="50" relative="1" as="geometry">
            <mxPoint x="490" y="-50" as="sourcePoint" />
            <mxPoint x="540" y="-100" as="targetPoint" />
          </mxGeometry>
        </mxCell>
        <mxCell id="OhinMRKyZW5N7yWiTl8t-286" value="1" style="edgeLabel;html=1;align=center;verticalAlign=middle;resizable=0;points=[];" parent="OhinMRKyZW5N7yWiTl8t-278" vertex="1" connectable="0">
          <mxGeometry x="0.6031" y="3" relative="1" as="geometry">
            <mxPoint x="9" y="-7" as="offset" />
          </mxGeometry>
        </mxCell>
        <mxCell id="OhinMRKyZW5N7yWiTl8t-288" value="N" style="edgeLabel;html=1;align=center;verticalAlign=middle;resizable=0;points=[];" parent="OhinMRKyZW5N7yWiTl8t-278" vertex="1" connectable="0">
          <mxGeometry x="-0.5613" y="-2" relative="1" as="geometry">
            <mxPoint x="9" y="-4" as="offset" />
          </mxGeometry>
        </mxCell>
        <mxCell id="OhinMRKyZW5N7yWiTl8t-279" value="belongs" style="shape=rhombus;perimeter=rhombusPerimeter;whiteSpace=wrap;html=1;align=center;" parent="1" vertex="1">
          <mxGeometry x="905" y="-112.5" width="90" height="45" as="geometry" />
        </mxCell>
        <mxCell id="OhinMRKyZW5N7yWiTl8t-280" value="" style="endArrow=none;html=1;rounded=0;" parent="1" source="OhinMRKyZW5N7yWiTl8t-279" target="OhinMRKyZW5N7yWiTl8t-255" edge="1">
          <mxGeometry width="50" height="50" relative="1" as="geometry">
            <mxPoint x="490" y="-50" as="sourcePoint" />
            <mxPoint x="540" y="-100" as="targetPoint" />
          </mxGeometry>
        </mxCell>
        <mxCell id="OhinMRKyZW5N7yWiTl8t-284" value="1" style="edgeLabel;html=1;align=center;verticalAlign=middle;resizable=0;points=[];" parent="OhinMRKyZW5N7yWiTl8t-280" vertex="1" connectable="0">
          <mxGeometry x="0.7979" relative="1" as="geometry">
            <mxPoint x="2" y="-10" as="offset" />
          </mxGeometry>
        </mxCell>
        <mxCell id="OhinMRKyZW5N7yWiTl8t-285" value="N" style="edgeLabel;html=1;align=center;verticalAlign=middle;resizable=0;points=[];" parent="OhinMRKyZW5N7yWiTl8t-280" vertex="1" connectable="0">
          <mxGeometry x="-0.8149" y="3" relative="1" as="geometry">
            <mxPoint x="-3" y="-13" as="offset" />
          </mxGeometry>
        </mxCell>
        <mxCell id="OhinMRKyZW5N7yWiTl8t-281" value="" style="endArrow=none;html=1;rounded=0;" parent="1" source="OhinMRKyZW5N7yWiTl8t-279" target="OhinMRKyZW5N7yWiTl8t-243" edge="1">
          <mxGeometry width="50" height="50" relative="1" as="geometry">
            <mxPoint x="490" y="-50" as="sourcePoint" />
            <mxPoint x="540" y="-100" as="targetPoint" />
          </mxGeometry>
        </mxCell>
        <mxCell id="OhinMRKyZW5N7yWiTl8t-282" value="1" style="edgeLabel;html=1;align=center;verticalAlign=middle;resizable=0;points=[];" parent="OhinMRKyZW5N7yWiTl8t-281" vertex="1" connectable="0">
          <mxGeometry x="0.6465" y="-2" relative="1" as="geometry">
            <mxPoint x="8" y="-2" as="offset" />
          </mxGeometry>
        </mxCell>
        <mxCell id="OhinMRKyZW5N7yWiTl8t-283" value="1" style="edgeLabel;html=1;align=center;verticalAlign=middle;resizable=0;points=[];" parent="OhinMRKyZW5N7yWiTl8t-281" vertex="1" connectable="0">
          <mxGeometry x="-0.5183" y="-1" relative="1" as="geometry">
            <mxPoint x="9" y="9" as="offset" />
          </mxGeometry>
        </mxCell>
        <mxCell id="OhinMRKyZW5N7yWiTl8t-291" value="payment" style="whiteSpace=wrap;html=1;align=center;" parent="1" vertex="1">
          <mxGeometry x="575" y="567.5" width="100" height="40" as="geometry" />
        </mxCell>
        <mxCell id="OhinMRKyZW5N7yWiTl8t-293" value="title" style="ellipse;whiteSpace=wrap;html=1;align=center;" parent="1" vertex="1">
          <mxGeometry x="715.38" y="640" width="50" height="27.5" as="geometry" />
        </mxCell>
        <mxCell id="OhinMRKyZW5N7yWiTl8t-294" value="description" style="ellipse;whiteSpace=wrap;html=1;align=center;" parent="1" vertex="1">
          <mxGeometry x="700" y="680" width="80" height="30" as="geometry" />
        </mxCell>
        <mxCell id="OhinMRKyZW5N7yWiTl8t-296" value="created_at" style="ellipse;whiteSpace=wrap;html=1;align=center;" parent="1" vertex="1">
          <mxGeometry x="635.38" y="705" width="80" height="35" as="geometry" />
        </mxCell>
        <mxCell id="OhinMRKyZW5N7yWiTl8t-297" value="state" style="ellipse;whiteSpace=wrap;html=1;align=center;" parent="1" vertex="1">
          <mxGeometry x="569.13" y="732.5" width="82.5" height="30" as="geometry" />
        </mxCell>
        <mxCell id="OhinMRKyZW5N7yWiTl8t-298" value="category" style="ellipse;whiteSpace=wrap;html=1;align=center;" parent="1" vertex="1">
          <mxGeometry x="522.5" y="697.5" width="82.5" height="30" as="geometry" />
        </mxCell>
        <mxCell id="OhinMRKyZW5N7yWiTl8t-299" value="paid_at" style="ellipse;whiteSpace=wrap;html=1;align=center;" parent="1" vertex="1">
          <mxGeometry x="485" y="665" width="82.5" height="30" as="geometry" />
        </mxCell>
        <mxCell id="OhinMRKyZW5N7yWiTl8t-300" value="amount" style="ellipse;whiteSpace=wrap;html=1;align=center;" parent="1" vertex="1">
          <mxGeometry x="452.88" y="632.5" width="82.5" height="30" as="geometry" />
        </mxCell>
        <mxCell id="OhinMRKyZW5N7yWiTl8t-304" value="id" style="ellipse;whiteSpace=wrap;html=1;align=center;fontStyle=4;" parent="1" vertex="1">
          <mxGeometry x="775" y="642.5" width="44" height="22.5" as="geometry" />
        </mxCell>
        <mxCell id="OhinMRKyZW5N7yWiTl8t-305" value="" style="endArrow=none;html=1;rounded=0;" parent="1" source="OhinMRKyZW5N7yWiTl8t-291" target="OhinMRKyZW5N7yWiTl8t-304" edge="1">
          <mxGeometry width="50" height="50" relative="1" as="geometry">
            <mxPoint x="405" y="612.5" as="sourcePoint" />
            <mxPoint x="455" y="562.5" as="targetPoint" />
          </mxGeometry>
        </mxCell>
        <mxCell id="OhinMRKyZW5N7yWiTl8t-306" value="" style="endArrow=none;html=1;rounded=0;" parent="1" source="OhinMRKyZW5N7yWiTl8t-300" target="OhinMRKyZW5N7yWiTl8t-291" edge="1">
          <mxGeometry width="50" height="50" relative="1" as="geometry">
            <mxPoint x="525" y="642.5" as="sourcePoint" />
            <mxPoint x="575" y="592.5" as="targetPoint" />
          </mxGeometry>
        </mxCell>
        <mxCell id="OhinMRKyZW5N7yWiTl8t-307" value="" style="endArrow=none;html=1;rounded=0;" parent="1" source="OhinMRKyZW5N7yWiTl8t-299" target="OhinMRKyZW5N7yWiTl8t-291" edge="1">
          <mxGeometry width="50" height="50" relative="1" as="geometry">
            <mxPoint x="525" y="642.5" as="sourcePoint" />
            <mxPoint x="575" y="592.5" as="targetPoint" />
          </mxGeometry>
        </mxCell>
        <mxCell id="OhinMRKyZW5N7yWiTl8t-308" value="" style="endArrow=none;html=1;rounded=0;" parent="1" source="OhinMRKyZW5N7yWiTl8t-298" target="OhinMRKyZW5N7yWiTl8t-291" edge="1">
          <mxGeometry width="50" height="50" relative="1" as="geometry">
            <mxPoint x="551" y="676.5" as="sourcePoint" />
            <mxPoint x="614" y="617.5" as="targetPoint" />
          </mxGeometry>
        </mxCell>
        <mxCell id="OhinMRKyZW5N7yWiTl8t-309" value="" style="endArrow=none;html=1;rounded=0;" parent="1" source="OhinMRKyZW5N7yWiTl8t-297" target="OhinMRKyZW5N7yWiTl8t-291" edge="1">
          <mxGeometry width="50" height="50" relative="1" as="geometry">
            <mxPoint x="581" y="707.5" as="sourcePoint" />
            <mxPoint x="625" y="617.5" as="targetPoint" />
          </mxGeometry>
        </mxCell>
        <mxCell id="OhinMRKyZW5N7yWiTl8t-310" value="" style="endArrow=none;html=1;rounded=0;" parent="1" source="OhinMRKyZW5N7yWiTl8t-296" target="OhinMRKyZW5N7yWiTl8t-291" edge="1">
          <mxGeometry width="50" height="50" relative="1" as="geometry">
            <mxPoint x="622" y="742.5" as="sourcePoint" />
            <mxPoint x="633" y="617.5" as="targetPoint" />
          </mxGeometry>
        </mxCell>
        <mxCell id="OhinMRKyZW5N7yWiTl8t-311" value="" style="endArrow=none;html=1;rounded=0;" parent="1" source="OhinMRKyZW5N7yWiTl8t-294" target="OhinMRKyZW5N7yWiTl8t-291" edge="1">
          <mxGeometry width="50" height="50" relative="1" as="geometry">
            <mxPoint x="679" y="707.5" as="sourcePoint" />
            <mxPoint x="643" y="617.5" as="targetPoint" />
          </mxGeometry>
        </mxCell>
        <mxCell id="OhinMRKyZW5N7yWiTl8t-312" value="" style="endArrow=none;html=1;rounded=0;" parent="1" source="OhinMRKyZW5N7yWiTl8t-293" target="OhinMRKyZW5N7yWiTl8t-291" edge="1">
          <mxGeometry width="50" height="50" relative="1" as="geometry">
            <mxPoint x="699" y="675.5" as="sourcePoint" />
            <mxPoint x="651" y="617.5" as="targetPoint" />
          </mxGeometry>
        </mxCell>
        <mxCell id="OhinMRKyZW5N7yWiTl8t-313" value="has" style="shape=rhombus;perimeter=rhombusPerimeter;whiteSpace=wrap;html=1;align=center;" parent="1" vertex="1">
          <mxGeometry x="353.75" y="430" width="92.5" height="50" as="geometry" />
        </mxCell>
        <mxCell id="OhinMRKyZW5N7yWiTl8t-317" value="" style="endArrow=none;html=1;rounded=0;" parent="1" source="OhinMRKyZW5N7yWiTl8t-313" target="OhinMRKyZW5N7yWiTl8t-2" edge="1">
          <mxGeometry width="50" height="50" relative="1" as="geometry">
            <mxPoint x="350" y="490" as="sourcePoint" />
            <mxPoint x="400" y="440" as="targetPoint" />
          </mxGeometry>
        </mxCell>
        <mxCell id="OhinMRKyZW5N7yWiTl8t-319" value="1" style="edgeLabel;html=1;align=center;verticalAlign=middle;resizable=0;points=[];" parent="OhinMRKyZW5N7yWiTl8t-317" vertex="1" connectable="0">
          <mxGeometry x="0.8548" y="1" relative="1" as="geometry">
            <mxPoint x="15" y="12" as="offset" />
          </mxGeometry>
        </mxCell>
        <mxCell id="OhinMRKyZW5N7yWiTl8t-320" value="1" style="edgeLabel;html=1;align=center;verticalAlign=middle;resizable=0;points=[];" parent="OhinMRKyZW5N7yWiTl8t-317" vertex="1" connectable="0">
          <mxGeometry x="-0.5275" y="-1" relative="1" as="geometry">
            <mxPoint x="13" y="30" as="offset" />
          </mxGeometry>
        </mxCell>
        <mxCell id="OhinMRKyZW5N7yWiTl8t-318" value="" style="endArrow=none;html=1;rounded=0;" parent="1" source="OhinMRKyZW5N7yWiTl8t-291" target="OhinMRKyZW5N7yWiTl8t-313" edge="1">
          <mxGeometry width="50" height="50" relative="1" as="geometry">
            <mxPoint x="350" y="490" as="sourcePoint" />
            <mxPoint x="400" y="440" as="targetPoint" />
          </mxGeometry>
        </mxCell>
        <mxCell id="OhinMRKyZW5N7yWiTl8t-321" value="1" style="edgeLabel;html=1;align=center;verticalAlign=middle;resizable=0;points=[];" parent="OhinMRKyZW5N7yWiTl8t-318" vertex="1" connectable="0">
          <mxGeometry x="0.827" y="1" relative="1" as="geometry">
            <mxPoint x="34" y="-7" as="offset" />
          </mxGeometry>
        </mxCell>
        <mxCell id="OhinMRKyZW5N7yWiTl8t-322" value="N" style="edgeLabel;html=1;align=center;verticalAlign=middle;resizable=0;points=[];" parent="OhinMRKyZW5N7yWiTl8t-318" vertex="1" connectable="0">
          <mxGeometry x="-0.7336" y="-2" relative="1" as="geometry">
            <mxPoint x="20" y="-3" as="offset" />
          </mxGeometry>
        </mxCell>
        <mxCell id="OhinMRKyZW5N7yWiTl8t-325" value="" style="endArrow=none;html=1;rounded=0;" parent="1" source="OhinMRKyZW5N7yWiTl8t-326" target="OhinMRKyZW5N7yWiTl8t-63" edge="1">
          <mxGeometry width="50" height="50" relative="1" as="geometry">
            <mxPoint x="880" y="470" as="sourcePoint" />
            <mxPoint x="620" y="450" as="targetPoint" />
          </mxGeometry>
        </mxCell>
        <mxCell id="OhinMRKyZW5N7yWiTl8t-329" value="0" style="edgeLabel;html=1;align=center;verticalAlign=middle;resizable=0;points=[];" parent="OhinMRKyZW5N7yWiTl8t-325" vertex="1" connectable="0">
          <mxGeometry x="0.7358" relative="1" as="geometry">
            <mxPoint x="-13" y="-1" as="offset" />
          </mxGeometry>
        </mxCell>
        <mxCell id="OhinMRKyZW5N7yWiTl8t-330" value="1" style="edgeLabel;html=1;align=center;verticalAlign=middle;resizable=0;points=[];" parent="OhinMRKyZW5N7yWiTl8t-325" vertex="1" connectable="0">
          <mxGeometry x="-0.8521" y="3" relative="1" as="geometry">
            <mxPoint x="-12" as="offset" />
          </mxGeometry>
        </mxCell>
        <mxCell id="OhinMRKyZW5N7yWiTl8t-326" value="contains" style="shape=rhombus;perimeter=rhombusPerimeter;whiteSpace=wrap;html=1;align=center;" parent="1" vertex="1">
          <mxGeometry x="825" y="557.5" width="120" height="60" as="geometry" />
        </mxCell>
        <mxCell id="OhinMRKyZW5N7yWiTl8t-327" value="" style="endArrow=none;html=1;rounded=0;" parent="1" source="OhinMRKyZW5N7yWiTl8t-291" target="OhinMRKyZW5N7yWiTl8t-326" edge="1">
          <mxGeometry width="50" height="50" relative="1" as="geometry">
            <mxPoint x="570" y="500" as="sourcePoint" />
            <mxPoint x="620" y="450" as="targetPoint" />
          </mxGeometry>
        </mxCell>
        <mxCell id="OhinMRKyZW5N7yWiTl8t-331" value="1" style="edgeLabel;html=1;align=center;verticalAlign=middle;resizable=0;points=[];" parent="OhinMRKyZW5N7yWiTl8t-327" vertex="1" connectable="0">
          <mxGeometry x="0.7733" relative="1" as="geometry">
            <mxPoint x="-8" y="-17" as="offset" />
          </mxGeometry>
        </mxCell>
        <mxCell id="OhinMRKyZW5N7yWiTl8t-332" value="1" style="edgeLabel;html=1;align=center;verticalAlign=middle;resizable=0;points=[];" parent="OhinMRKyZW5N7yWiTl8t-327" vertex="1" connectable="0">
          <mxGeometry x="-0.7711" relative="1" as="geometry">
            <mxPoint y="-17" as="offset" />
          </mxGeometry>
        </mxCell>
        <mxCell id="OhinMRKyZW5N7yWiTl8t-335" value="chess_questions" style="whiteSpace=wrap;html=1;align=center;" parent="1" vertex="1">
          <mxGeometry x="1022.75" y="870" width="100" height="40" as="geometry" />
        </mxCell>
        <mxCell id="OhinMRKyZW5N7yWiTl8t-336" value="Id" style="ellipse;whiteSpace=wrap;html=1;align=center;fontStyle=4;" parent="1" vertex="1">
          <mxGeometry x="937.25" y="927.5" width="50" height="30" as="geometry" />
        </mxCell>
        <mxCell id="OhinMRKyZW5N7yWiTl8t-337" value="topic" style="ellipse;whiteSpace=wrap;html=1;align=center;" parent="1" vertex="1">
          <mxGeometry x="954.75" y="972.5" width="53" height="30" as="geometry" />
        </mxCell>
        <mxCell id="OhinMRKyZW5N7yWiTl8t-338" value="message" style="ellipse;whiteSpace=wrap;html=1;align=center;" parent="1" vertex="1">
          <mxGeometry x="962.75" y="1007.5" width="75.5" height="30" as="geometry" />
        </mxCell>
        <mxCell id="OhinMRKyZW5N7yWiTl8t-339" value="category" style="ellipse;whiteSpace=wrap;html=1;align=center;" parent="1" vertex="1">
          <mxGeometry x="1022.75" y="977.5" width="70" height="35" as="geometry" />
        </mxCell>
        <mxCell id="OhinMRKyZW5N7yWiTl8t-340" value="email" style="ellipse;whiteSpace=wrap;html=1;align=center;" parent="1" vertex="1">
          <mxGeometry x="1082.75" y="1027.5" width="69.25" height="30" as="geometry" />
        </mxCell>
        <mxCell id="OhinMRKyZW5N7yWiTl8t-341" value="date" style="ellipse;whiteSpace=wrap;html=1;align=center;" parent="1" vertex="1">
          <mxGeometry x="1112.25" y="982.5" width="70" height="30" as="geometry" />
        </mxCell>
        <mxCell id="OhinMRKyZW5N7yWiTl8t-342" value="" style="endArrow=none;html=1;rounded=0;" parent="1" source="OhinMRKyZW5N7yWiTl8t-336" target="OhinMRKyZW5N7yWiTl8t-335" edge="1">
          <mxGeometry width="50" height="50" relative="1" as="geometry">
            <mxPoint x="852.75" y="787.5" as="sourcePoint" />
            <mxPoint x="902.75" y="737.5" as="targetPoint" />
          </mxGeometry>
        </mxCell>
        <mxCell id="OhinMRKyZW5N7yWiTl8t-343" value="" style="endArrow=none;html=1;rounded=0;" parent="1" source="OhinMRKyZW5N7yWiTl8t-337" target="OhinMRKyZW5N7yWiTl8t-335" edge="1">
          <mxGeometry width="50" height="50" relative="1" as="geometry">
            <mxPoint x="852.75" y="787.5" as="sourcePoint" />
            <mxPoint x="902.75" y="737.5" as="targetPoint" />
          </mxGeometry>
        </mxCell>
        <mxCell id="OhinMRKyZW5N7yWiTl8t-344" value="" style="endArrow=none;html=1;rounded=0;" parent="1" source="OhinMRKyZW5N7yWiTl8t-338" target="OhinMRKyZW5N7yWiTl8t-335" edge="1">
          <mxGeometry width="50" height="50" relative="1" as="geometry">
            <mxPoint x="852.75" y="787.5" as="sourcePoint" />
            <mxPoint x="902.75" y="737.5" as="targetPoint" />
          </mxGeometry>
        </mxCell>
        <mxCell id="OhinMRKyZW5N7yWiTl8t-345" value="" style="endArrow=none;html=1;rounded=0;" parent="1" source="OhinMRKyZW5N7yWiTl8t-339" target="OhinMRKyZW5N7yWiTl8t-335" edge="1">
          <mxGeometry width="50" height="50" relative="1" as="geometry">
            <mxPoint x="852.75" y="787.5" as="sourcePoint" />
            <mxPoint x="902.75" y="737.5" as="targetPoint" />
          </mxGeometry>
        </mxCell>
        <mxCell id="OhinMRKyZW5N7yWiTl8t-346" value="" style="endArrow=none;html=1;rounded=0;" parent="1" source="OhinMRKyZW5N7yWiTl8t-340" target="OhinMRKyZW5N7yWiTl8t-335" edge="1">
          <mxGeometry width="50" height="50" relative="1" as="geometry">
            <mxPoint x="852.75" y="787.5" as="sourcePoint" />
            <mxPoint x="902.75" y="737.5" as="targetPoint" />
          </mxGeometry>
        </mxCell>
        <mxCell id="OhinMRKyZW5N7yWiTl8t-347" value="" style="endArrow=none;html=1;rounded=0;" parent="1" source="OhinMRKyZW5N7yWiTl8t-341" target="OhinMRKyZW5N7yWiTl8t-335" edge="1">
          <mxGeometry width="50" height="50" relative="1" as="geometry">
            <mxPoint x="852.75" y="787.5" as="sourcePoint" />
            <mxPoint x="902.75" y="737.5" as="targetPoint" />
          </mxGeometry>
        </mxCell>
        <mxCell id="OhinMRKyZW5N7yWiTl8t-348" value="seen" style="ellipse;whiteSpace=wrap;html=1;align=center;" parent="1" vertex="1">
          <mxGeometry x="1187.75" y="982.5" width="60" height="30" as="geometry" />
        </mxCell>
        <mxCell id="OhinMRKyZW5N7yWiTl8t-349" value="" style="endArrow=none;html=1;rounded=0;" parent="1" source="OhinMRKyZW5N7yWiTl8t-335" target="OhinMRKyZW5N7yWiTl8t-348" edge="1">
          <mxGeometry width="50" height="50" relative="1" as="geometry">
            <mxPoint x="852.75" y="787.5" as="sourcePoint" />
            <mxPoint x="902.75" y="737.5" as="targetPoint" />
          </mxGeometry>
        </mxCell>
        <mxCell id="OhinMRKyZW5N7yWiTl8t-350" value="activities" style="whiteSpace=wrap;html=1;align=center;" parent="1" vertex="1">
          <mxGeometry x="767.25" y="870" width="100" height="40" as="geometry" />
        </mxCell>
        <mxCell id="OhinMRKyZW5N7yWiTl8t-351" value="description" style="ellipse;whiteSpace=wrap;html=1;align=center;" parent="1" vertex="1">
          <mxGeometry x="637.25" y="935" width="72.5" height="32.5" as="geometry" />
        </mxCell>
        <mxCell id="OhinMRKyZW5N7yWiTl8t-352" value="title" style="ellipse;whiteSpace=wrap;html=1;align=center;fontStyle=4;" parent="1" vertex="1">
          <mxGeometry x="632.25" y="882.5" width="60" height="27.5" as="geometry" />
        </mxCell>
        <mxCell id="OhinMRKyZW5N7yWiTl8t-353" value="start_date" style="ellipse;whiteSpace=wrap;html=1;align=center;" parent="1" vertex="1">
          <mxGeometry x="655.51" y="972.5" width="74.62" height="27.5" as="geometry" />
        </mxCell>
        <mxCell id="OhinMRKyZW5N7yWiTl8t-354" value="end_date" style="ellipse;whiteSpace=wrap;html=1;align=center;" parent="1" vertex="1">
          <mxGeometry x="679.75" y="1007.5" width="69.62" height="32.5" as="geometry" />
        </mxCell>
        <mxCell id="OhinMRKyZW5N7yWiTl8t-355" value="created_at" style="ellipse;whiteSpace=wrap;html=1;align=center;" parent="1" vertex="1">
          <mxGeometry x="755.51" y="995" width="74.62" height="32.5" as="geometry" />
        </mxCell>
        <mxCell id="OhinMRKyZW5N7yWiTl8t-356" value="category" style="ellipse;whiteSpace=wrap;html=1;align=center;" parent="1" vertex="1">
          <mxGeometry x="814.75" y="1030" width="84.62" height="30" as="geometry" />
        </mxCell>
        <mxCell id="OhinMRKyZW5N7yWiTl8t-357" value="image_src" style="ellipse;whiteSpace=wrap;html=1;align=center;" parent="1" vertex="1">
          <mxGeometry x="874.75" y="997.5" width="80" height="27.5" as="geometry" />
        </mxCell>
        <mxCell id="OhinMRKyZW5N7yWiTl8t-358" value="" style="endArrow=none;html=1;rounded=0;" parent="1" source="OhinMRKyZW5N7yWiTl8t-352" target="OhinMRKyZW5N7yWiTl8t-350" edge="1">
          <mxGeometry width="50" height="50" relative="1" as="geometry">
            <mxPoint x="654.75" y="900" as="sourcePoint" />
            <mxPoint x="704.75" y="850" as="targetPoint" />
          </mxGeometry>
        </mxCell>
        <mxCell id="OhinMRKyZW5N7yWiTl8t-359" value="" style="endArrow=none;html=1;rounded=0;" parent="1" source="OhinMRKyZW5N7yWiTl8t-351" target="OhinMRKyZW5N7yWiTl8t-350" edge="1">
          <mxGeometry width="50" height="50" relative="1" as="geometry">
            <mxPoint x="654.75" y="900" as="sourcePoint" />
            <mxPoint x="704.75" y="850" as="targetPoint" />
          </mxGeometry>
        </mxCell>
        <mxCell id="OhinMRKyZW5N7yWiTl8t-360" value="" style="endArrow=none;html=1;rounded=0;" parent="1" source="OhinMRKyZW5N7yWiTl8t-353" target="OhinMRKyZW5N7yWiTl8t-350" edge="1">
          <mxGeometry width="50" height="50" relative="1" as="geometry">
            <mxPoint x="654.75" y="900" as="sourcePoint" />
            <mxPoint x="704.75" y="850" as="targetPoint" />
          </mxGeometry>
        </mxCell>
        <mxCell id="OhinMRKyZW5N7yWiTl8t-361" value="" style="endArrow=none;html=1;rounded=0;" parent="1" source="OhinMRKyZW5N7yWiTl8t-354" target="OhinMRKyZW5N7yWiTl8t-350" edge="1">
          <mxGeometry width="50" height="50" relative="1" as="geometry">
            <mxPoint x="654.75" y="900" as="sourcePoint" />
            <mxPoint x="704.75" y="850" as="targetPoint" />
          </mxGeometry>
        </mxCell>
        <mxCell id="OhinMRKyZW5N7yWiTl8t-362" value="" style="endArrow=none;html=1;rounded=0;" parent="1" source="OhinMRKyZW5N7yWiTl8t-355" target="OhinMRKyZW5N7yWiTl8t-350" edge="1">
          <mxGeometry width="50" height="50" relative="1" as="geometry">
            <mxPoint x="654.75" y="900" as="sourcePoint" />
            <mxPoint x="704.75" y="850" as="targetPoint" />
          </mxGeometry>
        </mxCell>
        <mxCell id="OhinMRKyZW5N7yWiTl8t-363" value="" style="endArrow=none;html=1;rounded=0;" parent="1" source="OhinMRKyZW5N7yWiTl8t-356" target="OhinMRKyZW5N7yWiTl8t-350" edge="1">
          <mxGeometry width="50" height="50" relative="1" as="geometry">
            <mxPoint x="654.75" y="900" as="sourcePoint" />
            <mxPoint x="704.75" y="850" as="targetPoint" />
          </mxGeometry>
        </mxCell>
        <mxCell id="OhinMRKyZW5N7yWiTl8t-364" value="" style="endArrow=none;html=1;rounded=0;" parent="1" source="OhinMRKyZW5N7yWiTl8t-350" target="OhinMRKyZW5N7yWiTl8t-357" edge="1">
          <mxGeometry width="50" height="50" relative="1" as="geometry">
            <mxPoint x="654.75" y="900" as="sourcePoint" />
            <mxPoint x="704.75" y="850" as="targetPoint" />
          </mxGeometry>
        </mxCell>
        <mxCell id="OhinMRKyZW5N7yWiTl8t-365" value="author" style="whiteSpace=wrap;html=1;align=center;" parent="1" vertex="1">
          <mxGeometry x="-160" y="965.63" width="100" height="40" as="geometry" />
        </mxCell>
        <mxCell id="OhinMRKyZW5N7yWiTl8t-366" value="book" style="whiteSpace=wrap;html=1;align=center;" parent="1" vertex="1">
          <mxGeometry x="262.5" y="965.63" width="100" height="40" as="geometry" />
        </mxCell>
        <mxCell id="OhinMRKyZW5N7yWiTl8t-368" value="write" style="shape=rhombus;perimeter=rhombusPerimeter;whiteSpace=wrap;html=1;align=center;" parent="1" vertex="1">
          <mxGeometry x="30" y="956.25" width="120" height="60" as="geometry" />
        </mxCell>
        <mxCell id="OhinMRKyZW5N7yWiTl8t-369" value="" style="endArrow=none;html=1;rounded=0;entryX=0;entryY=0.5;entryDx=0;entryDy=0;" parent="1" source="OhinMRKyZW5N7yWiTl8t-365" target="OhinMRKyZW5N7yWiTl8t-368" edge="1">
          <mxGeometry width="50" height="50" relative="1" as="geometry">
            <mxPoint x="460" y="900" as="sourcePoint" />
            <mxPoint x="510" y="850" as="targetPoint" />
          </mxGeometry>
        </mxCell>
        <mxCell id="OhinMRKyZW5N7yWiTl8t-371" value="0" style="edgeLabel;html=1;align=center;verticalAlign=middle;resizable=0;points=[];" parent="OhinMRKyZW5N7yWiTl8t-369" vertex="1" connectable="0">
          <mxGeometry x="-0.7534" y="2" relative="1" as="geometry">
            <mxPoint x="-1" y="-12" as="offset" />
          </mxGeometry>
        </mxCell>
        <mxCell id="OhinMRKyZW5N7yWiTl8t-372" value="N" style="edgeLabel;html=1;align=center;verticalAlign=middle;resizable=0;points=[];" parent="OhinMRKyZW5N7yWiTl8t-369" vertex="1" connectable="0">
          <mxGeometry x="0.6104" y="-1" relative="1" as="geometry">
            <mxPoint x="18" y="-17" as="offset" />
          </mxGeometry>
        </mxCell>
        <mxCell id="OhinMRKyZW5N7yWiTl8t-370" value="" style="endArrow=none;html=1;rounded=0;exitX=1;exitY=0.5;exitDx=0;exitDy=0;" parent="1" source="OhinMRKyZW5N7yWiTl8t-368" target="OhinMRKyZW5N7yWiTl8t-366" edge="1">
          <mxGeometry width="50" height="50" relative="1" as="geometry">
            <mxPoint x="460" y="900" as="sourcePoint" />
            <mxPoint x="305" y="987" as="targetPoint" />
          </mxGeometry>
        </mxCell>
        <mxCell id="OhinMRKyZW5N7yWiTl8t-373" value="0" style="edgeLabel;html=1;align=center;verticalAlign=middle;resizable=0;points=[];" parent="OhinMRKyZW5N7yWiTl8t-370" vertex="1" connectable="0">
          <mxGeometry x="-0.8135" y="-1" relative="1" as="geometry">
            <mxPoint x="-3" y="-15" as="offset" />
          </mxGeometry>
        </mxCell>
        <mxCell id="OhinMRKyZW5N7yWiTl8t-374" value="M" style="edgeLabel;html=1;align=center;verticalAlign=middle;resizable=0;points=[];" parent="OhinMRKyZW5N7yWiTl8t-370" vertex="1" connectable="0">
          <mxGeometry x="0.6199" y="3" relative="1" as="geometry">
            <mxPoint x="-1" y="-13" as="offset" />
          </mxGeometry>
        </mxCell>
        <mxCell id="OhinMRKyZW5N7yWiTl8t-375" value="id" style="ellipse;whiteSpace=wrap;html=1;align=center;fontStyle=4;" parent="1" vertex="1">
          <mxGeometry x="-271.25" y="1069.38" width="53.75" height="30" as="geometry" />
        </mxCell>
        <mxCell id="OhinMRKyZW5N7yWiTl8t-376" value="first_name" style="ellipse;whiteSpace=wrap;html=1;align=center;" parent="1" vertex="1">
          <mxGeometry x="-207.5" y="1059.38" width="80" height="30" as="geometry" />
        </mxCell>
        <mxCell id="OhinMRKyZW5N7yWiTl8t-377" value="last_name" style="ellipse;whiteSpace=wrap;html=1;align=center;" parent="1" vertex="1">
          <mxGeometry x="-147.5" y="1089.38" width="70" height="30" as="geometry" />
        </mxCell>
        <mxCell id="OhinMRKyZW5N7yWiTl8t-378" value="nationality" style="ellipse;whiteSpace=wrap;html=1;align=center;" parent="1" vertex="1">
          <mxGeometry x="-92.5" y="1059.38" width="82.5" height="30" as="geometry" />
        </mxCell>
        <mxCell id="OhinMRKyZW5N7yWiTl8t-379" value="" style="endArrow=none;html=1;rounded=0;" parent="1" source="OhinMRKyZW5N7yWiTl8t-375" target="OhinMRKyZW5N7yWiTl8t-365" edge="1">
          <mxGeometry width="50" height="50" relative="1" as="geometry">
            <mxPoint x="-27.5" y="999.38" as="sourcePoint" />
            <mxPoint x="22.5" y="949.38" as="targetPoint" />
          </mxGeometry>
        </mxCell>
        <mxCell id="OhinMRKyZW5N7yWiTl8t-380" value="" style="endArrow=none;html=1;rounded=0;" parent="1" source="OhinMRKyZW5N7yWiTl8t-376" target="OhinMRKyZW5N7yWiTl8t-365" edge="1">
          <mxGeometry width="50" height="50" relative="1" as="geometry">
            <mxPoint x="-27.5" y="999.38" as="sourcePoint" />
            <mxPoint x="22.5" y="949.38" as="targetPoint" />
          </mxGeometry>
        </mxCell>
        <mxCell id="OhinMRKyZW5N7yWiTl8t-381" value="" style="endArrow=none;html=1;rounded=0;" parent="1" source="OhinMRKyZW5N7yWiTl8t-377" target="OhinMRKyZW5N7yWiTl8t-365" edge="1">
          <mxGeometry width="50" height="50" relative="1" as="geometry">
            <mxPoint x="-27.5" y="999.38" as="sourcePoint" />
            <mxPoint x="22.5" y="949.38" as="targetPoint" />
          </mxGeometry>
        </mxCell>
        <mxCell id="OhinMRKyZW5N7yWiTl8t-382" value="" style="endArrow=none;html=1;rounded=0;" parent="1" source="OhinMRKyZW5N7yWiTl8t-378" target="OhinMRKyZW5N7yWiTl8t-365" edge="1">
          <mxGeometry width="50" height="50" relative="1" as="geometry">
            <mxPoint x="-27.5" y="999.38" as="sourcePoint" />
            <mxPoint x="22.5" y="949.38" as="targetPoint" />
          </mxGeometry>
        </mxCell>
        <mxCell id="OhinMRKyZW5N7yWiTl8t-383" value="title" style="ellipse;whiteSpace=wrap;html=1;align=center;" parent="1" vertex="1">
          <mxGeometry x="220" y="1075" width="60" height="29.38" as="geometry" />
        </mxCell>
        <mxCell id="OhinMRKyZW5N7yWiTl8t-384" value="" style="endArrow=none;html=1;rounded=0;" parent="1" source="OhinMRKyZW5N7yWiTl8t-383" target="OhinMRKyZW5N7yWiTl8t-366" edge="1">
          <mxGeometry width="50" height="50" relative="1" as="geometry">
            <mxPoint x="-140" y="1005" as="sourcePoint" />
            <mxPoint x="-90" y="955" as="targetPoint" />
          </mxGeometry>
        </mxCell>
        <mxCell id="OhinMRKyZW5N7yWiTl8t-385" value="gender" style="ellipse;whiteSpace=wrap;html=1;align=center;" parent="1" vertex="1">
          <mxGeometry x="245" y="1125.6200000000001" width="66" height="29.38" as="geometry" />
        </mxCell>
        <mxCell id="OhinMRKyZW5N7yWiTl8t-386" value="" style="endArrow=none;html=1;rounded=0;" parent="1" source="OhinMRKyZW5N7yWiTl8t-385" target="OhinMRKyZW5N7yWiTl8t-366" edge="1">
          <mxGeometry width="50" height="50" relative="1" as="geometry">
            <mxPoint x="-140" y="1005" as="sourcePoint" />
            <mxPoint x="-90" y="955" as="targetPoint" />
          </mxGeometry>
        </mxCell>
        <mxCell id="OhinMRKyZW5N7yWiTl8t-389" value="publish_year" style="ellipse;whiteSpace=wrap;html=1;align=center;" parent="1" vertex="1">
          <mxGeometry x="297.5" y="1155" width="75" height="30" as="geometry" />
        </mxCell>
        <mxCell id="OhinMRKyZW5N7yWiTl8t-391" value="" style="endArrow=none;html=1;rounded=0;" parent="1" source="OhinMRKyZW5N7yWiTl8t-366" target="OhinMRKyZW5N7yWiTl8t-389" edge="1">
          <mxGeometry width="50" height="50" relative="1" as="geometry">
            <mxPoint x="-140" y="1005" as="sourcePoint" />
            <mxPoint x="-90" y="955" as="targetPoint" />
          </mxGeometry>
        </mxCell>
        <mxCell id="OhinMRKyZW5N7yWiTl8t-392" value="language" style="ellipse;whiteSpace=wrap;html=1;align=center;" parent="1" vertex="1">
          <mxGeometry x="350" y="1125" width="70" height="30" as="geometry" />
        </mxCell>
        <mxCell id="OhinMRKyZW5N7yWiTl8t-393" value="" style="endArrow=none;html=1;rounded=0;" parent="1" source="OhinMRKyZW5N7yWiTl8t-392" target="OhinMRKyZW5N7yWiTl8t-366" edge="1">
          <mxGeometry width="50" height="50" relative="1" as="geometry">
            <mxPoint x="-140" y="1205" as="sourcePoint" />
            <mxPoint x="-90" y="1155" as="targetPoint" />
          </mxGeometry>
        </mxCell>
        <mxCell id="OhinMRKyZW5N7yWiTl8t-395" value="isbn" style="ellipse;whiteSpace=wrap;html=1;align=center;fontStyle=4;" parent="1" vertex="1">
          <mxGeometry x="414" y="1076.88" width="65" height="27.5" as="geometry" />
        </mxCell>
        <mxCell id="OhinMRKyZW5N7yWiTl8t-396" value="" style="endArrow=none;html=1;rounded=0;" parent="1" source="OhinMRKyZW5N7yWiTl8t-395" target="OhinMRKyZW5N7yWiTl8t-366" edge="1">
          <mxGeometry width="50" height="50" relative="1" as="geometry">
            <mxPoint x="310" y="1100" as="sourcePoint" />
            <mxPoint x="360" y="1050" as="targetPoint" />
          </mxGeometry>
        </mxCell>
        <mxCell id="2vkmYI8VWJMC2V57e1SR-1" value="" style="endArrow=none;html=1;rounded=0;exitX=1;exitY=0.5;exitDx=0;exitDy=0;" parent="1" source="OhinMRKyZW5N7yWiTl8t-2" target="2vkmYI8VWJMC2V57e1SR-4" edge="1">
          <mxGeometry relative="1" as="geometry">
            <mxPoint x="460" y="238" as="sourcePoint" />
            <mxPoint x="670" y="240" as="targetPoint" />
          </mxGeometry>
        </mxCell>
        <mxCell id="2vkmYI8VWJMC2V57e1SR-2" value="1" style="resizable=0;html=1;whiteSpace=wrap;align=left;verticalAlign=bottom;" parent="2vkmYI8VWJMC2V57e1SR-1" connectable="0" vertex="1">
          <mxGeometry x="-1" relative="1" as="geometry">
            <mxPoint x="10" as="offset" />
          </mxGeometry>
        </mxCell>
        <mxCell id="2vkmYI8VWJMC2V57e1SR-3" value="n" style="resizable=0;html=1;whiteSpace=wrap;align=right;verticalAlign=bottom;" parent="2vkmYI8VWJMC2V57e1SR-1" connectable="0" vertex="1">
          <mxGeometry x="1" relative="1" as="geometry">
            <mxPoint x="-22" as="offset" />
          </mxGeometry>
        </mxCell>
        <mxCell id="2vkmYI8VWJMC2V57e1SR-4" value="is member" style="shape=rhombus;perimeter=rhombusPerimeter;whiteSpace=wrap;html=1;align=center;" parent="1" vertex="1">
          <mxGeometry x="727.5" y="175" width="120" height="60" as="geometry" />
        </mxCell>
        <mxCell id="2vkmYI8VWJMC2V57e1SR-5" value="" style="endArrow=none;html=1;rounded=0;" parent="1" source="2vkmYI8VWJMC2V57e1SR-4" target="2vkmYI8VWJMC2V57e1SR-8" edge="1">
          <mxGeometry relative="1" as="geometry">
            <mxPoint x="771" y="159" as="sourcePoint" />
            <mxPoint x="940" y="240" as="targetPoint" />
          </mxGeometry>
        </mxCell>
        <mxCell id="2vkmYI8VWJMC2V57e1SR-6" value="0" style="resizable=0;html=1;whiteSpace=wrap;align=left;verticalAlign=bottom;" parent="2vkmYI8VWJMC2V57e1SR-5" connectable="0" vertex="1">
          <mxGeometry x="-1" relative="1" as="geometry" />
        </mxCell>
        <mxCell id="2vkmYI8VWJMC2V57e1SR-7" value="1" style="resizable=0;html=1;whiteSpace=wrap;align=right;verticalAlign=bottom;" parent="2vkmYI8VWJMC2V57e1SR-5" connectable="0" vertex="1">
          <mxGeometry x="1" relative="1" as="geometry" />
        </mxCell>
        <mxCell id="2vkmYI8VWJMC2V57e1SR-8" value="teams" style="whiteSpace=wrap;html=1;align=center;" parent="1" vertex="1">
          <mxGeometry x="954.75" y="160" width="100" height="40" as="geometry" />
        </mxCell>
        <mxCell id="evTow48RAkU2boOvreEN-1" value="name" style="ellipse;whiteSpace=wrap;html=1;align=center;fontStyle=4;" vertex="1" parent="1">
          <mxGeometry x="1060" y="110" width="50" height="20" as="geometry" />
        </mxCell>
        <mxCell id="evTow48RAkU2boOvreEN-2" value="category" style="ellipse;whiteSpace=wrap;html=1;align=center;" vertex="1" parent="1">
          <mxGeometry x="1102" y="135" width="88" height="25" as="geometry" />
        </mxCell>
        <mxCell id="evTow48RAkU2boOvreEN-4" value="description" style="ellipse;whiteSpace=wrap;html=1;align=center;" vertex="1" parent="1">
          <mxGeometry x="1110" y="170" width="88" height="25" as="geometry" />
        </mxCell>
        <mxCell id="evTow48RAkU2boOvreEN-5" value="" style="endArrow=none;html=1;rounded=0;" edge="1" parent="1" source="2vkmYI8VWJMC2V57e1SR-8" target="evTow48RAkU2boOvreEN-1">
          <mxGeometry width="50" height="50" relative="1" as="geometry">
            <mxPoint x="940" y="114" as="sourcePoint" />
            <mxPoint x="1024" y="91" as="targetPoint" />
          </mxGeometry>
        </mxCell>
        <mxCell id="evTow48RAkU2boOvreEN-6" value="" style="endArrow=none;html=1;rounded=0;" edge="1" parent="1" source="2vkmYI8VWJMC2V57e1SR-8" target="evTow48RAkU2boOvreEN-2">
          <mxGeometry width="50" height="50" relative="1" as="geometry">
            <mxPoint x="1042" y="170" as="sourcePoint" />
            <mxPoint x="1083" y="139" as="targetPoint" />
          </mxGeometry>
        </mxCell>
        <mxCell id="evTow48RAkU2boOvreEN-7" value="" style="endArrow=none;html=1;rounded=0;" edge="1" parent="1" source="2vkmYI8VWJMC2V57e1SR-8" target="evTow48RAkU2boOvreEN-4">
          <mxGeometry width="50" height="50" relative="1" as="geometry">
            <mxPoint x="1065" y="178" as="sourcePoint" />
            <mxPoint x="1122" y="165" as="targetPoint" />
          </mxGeometry>
        </mxCell>
      </root>
    </mxGraphModel>
  </diagram>
</mxfile>
